<?xml version="1.0" encoding="UTF-8"?>
<svg width="1149" height="157" version="1.1" xmlns="http://www.w3.org/2000/svg">
 <defs>
  <clipPath id="iwZuWbtDlMxo">
   <path d="m0 0h1149v157h-1149v-157z" fill="none"/>
  </clipPath>
 </defs>
 <g clip-path="url(#iwZuWbtDlMxo)">
  <g transform="translate(-12,-180)">
   <g transform="translate(448,115)">
    <g transform="translate(-448,-115)">
     <g transform="scale(35)">
      <g transform="translate(.62857 8.0089)">
       <path d="m0.645-0.695-0.054 0.219q-9e-3 0.019-0.015 0.02-0.012 0-0.012-0.01l4e-3 -0.054v-2e-3q0-0.138-0.116-0.153-0.013-2e-3 -0.028-2e-3 -0.078 0-0.133 0.063-0.042 0.048-0.042 0.103 0 0.06 0.049 0.086 6e-3 3e-3 0.012 5e-3 5e-3 1e-3 0.067 0.018 0.092 0.024 0.11 0.036 8e-3 5e-3 0.017 0.014 0.049 0.046 0.049 0.117 0 0.092-0.072 0.171-0.082 0.083-0.182 0.086-0.116 0-0.169-0.072l-0.049 0.057q-0.013 0.015-0.018 0.015-0.011 0-0.011-0.01l0.057-0.225v-2e-3q2e-3 -7e-3 3e-3 -8e-3 4e-3 -4e-3 0.01-4e-3 0.012 0 0.012 0.011l-2e-3 7e-3q-6e-3 0.036-6e-3 0.054 0 0.113 0.115 0.139 0.028 7e-3 0.06 7e-3 0.079 0 0.135-0.068 0.045-0.053 0.045-0.116 0-0.078-0.072-0.101l-0.02-5e-3 -0.107-0.028q-0.066-0.019-0.092-0.08-0.012-0.029-0.012-0.062 0-0.091 0.076-0.164 0.076-0.072 0.171-0.072 0.102 0 0.143 0.072l0.048-0.057q0.013-0.015 0.018-0.015 0.011 0 0.011 0.01z" style="paint-order:stroke fill markers"/>
      </g>
      <g transform="matrix(.7 0 0 .7 1.2416 8.1589)">
       <path d="m0.76-0.695-0.063 0.255q-5e-3 0.018-0.01 0.019l-1e-3 1e-3h-7e-3q-0.015 0-0.015-0.01l3e-3 -0.049v-2e-3q0-0.124-0.078-0.171l-1e-3 -1e-3q-0.035-0.021-0.082-0.021-0.107 0-0.203 0.081-0.027 0.022-0.047 0.048-0.096 0.118-0.113 0.29-2e-3 0.021-2e-3 0.036 0 0.137 0.104 0.188 0.044 0.022 0.097 0.022 0.085 0 0.141-0.043 0.04-0.03 0.052-0.078 0.021-0.078 0.021-0.091t-0.015-0.017q-5e-3 -1e-3 -0.016-2e-3 -0.023-2e-3 -0.053-2e-3 -0.027 0-0.029-6e-3 -1e-3 -1e-3 -1e-3 -5e-3 0-0.02 0.021-0.02l0.139 3e-3h1e-3l0.104-3e-3h1e-3q0.013 0 0.013 0.011 0 0.02-0.016 0.02-0.046 1e-3 -0.055 0.01-6e-3 7e-3 -0.014 0.038 0-2e-3 -0.01 0.039-2e-3 7e-3 -3e-3 0.012l-0.019 0.077q-0.014 0.058-0.017 0.061 0 4e-3 -7e-3 4e-3 -0.011 0-0.034-0.038-7e-3 -0.013-0.011-0.024-0.034 0.038-0.077 0.057l-0.01 4e-3q-0.058 0.024-0.125 0.024-0.135 0-0.212-0.094-0.061-0.074-0.061-0.18 0-0.149 0.109-0.279 0.101-0.121 0.239-0.16 0.051-0.014 0.1-0.014 0.109 0 0.166 0.089l0.07-0.077q0.012-0.012 0.015-0.012 0.011 0 0.011 0.01z" style="paint-order:stroke fill markers"/>
      </g>
      <g transform="matrix(.7 0 0 .7 1.7918 8.1589)">
       <path d="m0.661-0.23h-0.545q-0.032 0-0.033-0.02 0-0.02 0.033-0.02h0.545q0.032 0 0.033 0.02 0 0.02-0.033 0.02z" style="paint-order:stroke fill markers"/>
      </g>
      <g transform="matrix(.7 0 0 .7 2.3364 8.1589)">
       <path d="m0.179-0.115 0.348-0.584q0.01-0.016 0.026-0.017 0.015 0 0.017 0.01 1e-3 3e-3 2e-3 0.014l0.061 0.625q3e-3 0.025 0.012 0.03h1e-3v1e-3q0.012 5e-3 0.052 5e-3 0.022 0 0.023 0.011 0 0.02-0.018 0.02l-0.112-3e-3h-1e-3l-0.124 3e-3h-1e-3q-0.014 0-0.014-0.011 8e-3 -0.019 0.024-0.02 0.072 0 0.072-0.033 0 1e-3 -0.016-0.167h-0.251l-0.076 0.128q-0.014 0.025-0.014 0.037 0 0.031 0.047 0.035 0.016 0 0.016 0.012 0 0.019-0.019 0.019l-0.096-3e-3h-4e-3l-0.084 3e-3h-2e-3q-0.013 0-0.013-0.011 0-0.018 0.015-0.019v-1e-3h6e-3q0.063-4e-3 0.103-0.054 0.01-0.013 0.02-0.03m0.12-0.147h0.229l-0.032-0.33z" style="paint-order:stroke fill markers"/>
      </g>
      <g transform="translate(3.0836 8.0089)">
       <path d="m0.687-0.327h-0.597q-0.032 0-0.034-0.02 0-0.02 0.033-0.02h0.599q0.032 0 0.033 0.02 0 0.02-0.034 0.02m1e-3 0.194h-0.599q-0.032 0-0.033-0.02 0-0.02 0.034-0.02h0.597q0.032 0 0.034 0.02 0 0.02-0.033 0.02z" style="paint-order:stroke fill markers"/>
      </g>
      <g transform="matrix(.5 0 0 .5 4.1394 6.7589)">
       <path d="m0.065918 1q-0.0097656 0-0.0097656-0.01123 0-0.003906 0.0029297-0.006836l0.36377-0.44482-0.36377-0.50098q-0.0029297-0.0029297-0.0029297-0.0053711v-0.021973q0-0.003418 0.0031738-0.0061035 0.0031739-0.0026856 0.0065918-0.0026856h0.84717l0.085938 0.23389h-0.028809q-0.024902-0.068359-0.075439-0.10864t-0.11548-0.058594q-0.064941-0.018311-0.12646-0.022461t-0.1499-0.0041504h-0.33398l0.33008 0.45312q0.00293 0.00293 0.00293 0.006836t-0.00293 0.006836l-0.35693 0.43604h0.3667q0.086914 0 0.14795-0.00415 0.061035-0.00415 0.12549-0.021973 0.064453-0.017822 0.1145-0.058594 0.050049-0.040772 0.073486-0.10913h0.028809l-0.085937 0.25098z" style="paint-order:stroke fill markers"/>
      </g>
      <g transform="matrix(.5 0 0 .5 4.7507 7.1339)">
       <path d="m0.917-0.567-0.328 0.57q-0.011 0.019-0.024 0.019-0.012 0-0.014-0.012-1e-3 -5e-3 -2e-3 -0.014l-0.037-0.505-0.294 0.51q-0.011 0.019-0.019 0.02l-1e-3 1e-3h-4e-3q-0.013 0-0.015-0.015-1e-3 -4e-3 -1e-3 -0.011l-0.045-0.611q-2e-3 -0.026-0.012-0.032h-2e-3q-0.01-5e-3 -0.039-5e-3 -0.023 0-0.025-0.012 0-0.019 0.018-0.019l0.104 3e-3h1e-3l0.121-3e-3h2e-3q0.014 0 0.014 0.011-4e-3 0.019-0.021 0.02-0.075 1e-3 -0.076 0.036l0.038 0.507 0.253-0.441-6e-3 -0.077q-2e-3 -0.019-0.02-0.023-0.011-2e-3 -0.033-2e-3t-0.024-0.011q0-0.02 0.019-0.02l0.104 3e-3h1e-3l0.116-3e-3h6e-3q0.015 0 0.015 0.011 0 0.018-0.015 0.02h-0.012q-0.068 1e-3 -0.07 0.035v0.012l0.037 0.496 0.27-0.471q0.013-0.023 0.013-0.033 0-0.036-0.059-0.039-0.015 0-0.015-0.012 0-0.019 0.019-0.019l0.103 3e-3h1e-3l0.075-3e-3h2e-3q0.01 0 0.012 0.011 0 0.018-0.015 0.02h-4e-3q-0.06 5e-3 -0.095 0.057l-1e-3 1e-3v1e-3q-7e-3 0.01-0.016 0.026z" style="paint-order:stroke fill markers"/>
      </g>
      <g transform="matrix(.5 0 0 .5 5.2227 7.303)">
       <path d="m0.303-0.316-0.062 0.25-3e-3 0.017q0 0.017 0.046 0.018h0.019q0.026 0 0.028 0.011 0 0.02-0.02 0.02l-0.064-2e-3h-1e-3l-0.062-1e-3h-2e-3l-0.126 3e-3h-1e-3q-0.015 0-0.015-0.012 0-0.017 0.016-0.019h0.012q0.065 0 0.078-0.014 6e-3 -7e-3 0.012-0.028 0-1e-3 1e-3 -5e-3l0.134-0.537q4e-3 -0.016 4e-3 -0.019 0-0.012-0.016-0.015h-1e-3q-2e-3 -1e-3 -5e-3 -1e-3 -0.024-2e-3 -0.043-2e-3 -0.026 0-0.028-8e-3 -1e-3 -2e-3 -1e-3 -4e-3 0-0.017 0.017-0.019h0.337q0.121 0 0.173 0.074 0.024 0.035 0.024 0.077 0 0.081-0.083 0.147-0.088 0.069-0.198 0.069h-0.17m0.072-0.298-0.068 0.272h0.141q0.095 0 0.154-0.053 0.041-0.038 0.056-0.127v-1e-3q3e-3 -0.019 3e-3 -0.033 0-0.096-0.136-0.096h-0.096q-0.036 0-0.044 0.01v1e-3h-1e-3v1e-3q-4e-3 6e-3 -9e-3 0.026z" style="paint-order:stroke fill markers"/>
      </g>
      <g transform="matrix(.5 0 0 .5 5.6132 7.303)">
       <path d="m0.088-0.059 0.058-0.231q0.016-0.064 0.016-0.084 0-0.046-0.031-0.046-0.041 0-0.067 0.095-3e-3 0.011-6e-3 0.024-0.011 0.022-0.017 0.023-0.012 0-0.012-0.01 0-0.016 0.018-0.067 7e-3 -0.018 0.013-0.03 0.024-0.049 0.06-0.056 7e-3 -1e-3 0.014-1e-3 0.056 0 0.081 0.048 6e-3 0.011 9e-3 0.024 1e-3 2e-3 1e-3 5e-3 0.058-0.072 0.128-0.077 0.056 0 0.076 0.039 7e-3 0.012 7e-3 0.026 0 0.039-0.033 0.054-0.011 5e-3 -0.022 5e-3 -0.031 0-0.037-0.027-1e-3 -4e-3 -1e-3 -8e-3 0-0.033 0.034-0.049l1e-3 -1e-3q8e-3 -3e-3 0.017-5e-3l-0.02-9e-3q-0.013-2e-3 -0.022-3e-3 -0.042 0-0.08 0.033-0.031 0.028-0.053 0.074-2e-3 5e-3 -3e-3 8e-3l-0.032 0.13-0.04 0.158q-9e-3 0.026-0.037 0.028-0.025-5e-3 -0.029-0.027 0 2e-3 9e-3 -0.043z" style="paint-order:stroke fill markers"/>
      </g>
      <g transform="matrix(.5 0 0 .5 5.8527 7.303)">
       <path d="m0.469-0.273q0 0.106-0.081 0.193-0.077 0.084-0.173 0.09-7e-3 1e-3 -0.014 1e-3 -0.087 0-0.132-0.069-0.028-0.043-0.028-0.1 0-0.103 0.08-0.191 0.076-0.084 0.172-0.092 8e-3 -1e-3 0.016-1e-3 0.086 0 0.131 0.067 0.029 0.043 0.029 0.102m-0.267 0.262q0.059 0 0.111-0.058 0.014-0.016 0.025-0.034 0.042-0.072 0.056-0.179 1e-3 -8e-3 1e-3 -0.016v-1e-3l1e-3 -1e-3v-0.012q0-0.074-0.049-0.099-0.017-9e-3 -0.039-9e-3 -0.061 0-0.115 0.064-7e-3 9e-3 -0.013 0.018-4e-3 5e-3 -7e-3 0.01-0.036 0.058-0.053 0.162-5e-3 0.028-5e-3 0.046 0 0.083 0.058 0.104 0.014 5e-3 0.029 5e-3z" style="paint-order:stroke fill markers"/>
      </g>
      <g transform="matrix(.5 0 0 .5 6.0952 7.303)">
       <path d="m0.206-0.4-0.074 0.295q-6e-3 0.025-6e-3 0.048 0 0.046 0.031 0.046 0.066 0 0.116-0.097l0.014-0.031q6e-3 -0.013 0.015-0.014 0.012 0 0.012 0.01 0 0.013-0.026 0.057-0.058 0.097-0.133 0.097-0.058 0-0.082-0.048-0.01-0.02-0.01-0.044 0-0.019 0.061-0.259l0.015-0.06h-0.088q-0.025 0-0.027-8e-3h-1e-3v-4e-3q0-0.017 0.016-0.019h0.108l0.039-0.159q9e-3 -0.035 0.04-0.036 0.026 0 0.029 0.027 0 6e-3 -0.041 0.168h0.088q0.026 0 0.028 0.011 0 0.018-0.016 0.02h-0.014z" style="paint-order:stroke fill markers"/>
      </g>
      <g transform="matrix(.5 0 0 .5 6.2757 7.303)">
       <path d="m0.203-1e-3q0 0.097-0.063 0.17-0.017 0.02-0.028 0.024-0.01 0-0.01-0.011 0-5e-3 0.011-0.016 0.06-0.06 0.067-0.147 1e-3 -0.01 1e-3 -0.02 0-0.015-2e-3 -0.015-1e-3 0-5e-3 3e-3 -0.014 0.013-0.035 0.013-0.037 0-0.049-0.034-4e-3 -9e-3 -4e-3 -0.019 0-0.036 0.031-0.049 0.01-4e-3 0.022-4e-3 0.044 0 0.059 0.058 5e-3 0.021 5e-3 0.047z" style="paint-order:stroke fill markers"/>
      </g>
      <g transform="matrix(.5 0 0 .5 6.4147 7.303)">
       <path d="m0.303-0.316-0.062 0.25-3e-3 0.017q0 0.017 0.046 0.018h0.019q0.026 0 0.028 0.011 0 0.02-0.02 0.02l-0.064-2e-3h-1e-3l-0.062-1e-3h-2e-3l-0.126 3e-3h-1e-3q-0.015 0-0.015-0.012 0-0.017 0.016-0.019h0.012q0.065 0 0.078-0.014 6e-3 -7e-3 0.012-0.028 0-1e-3 1e-3 -5e-3l0.134-0.537q4e-3 -0.016 4e-3 -0.019 0-0.012-0.016-0.015h-1e-3q-2e-3 -1e-3 -5e-3 -1e-3 -0.024-2e-3 -0.043-2e-3 -0.026 0-0.028-8e-3 -1e-3 -2e-3 -1e-3 -4e-3 0-0.017 0.017-0.019h0.337q0.121 0 0.173 0.074 0.024 0.035 0.024 0.077 0 0.081-0.083 0.147-0.088 0.069-0.198 0.069h-0.17m0.072-0.298-0.068 0.272h0.141q0.095 0 0.154-0.053 0.041-0.038 0.056-0.127v-1e-3q3e-3 -0.019 3e-3 -0.033 0-0.096-0.136-0.096h-0.096q-0.036 0-0.044 0.01v1e-3h-1e-3v1e-3q-4e-3 6e-3 -9e-3 0.026z" style="paint-order:stroke fill markers"/>
      </g>
      <g transform="matrix(.5 0 0 .5 6.8052 7.303)">
       <path d="m0.187-0.231h-0.053q-0.016 0.065-0.016 0.104 0 0.079 0.046 0.106 0.017 0.01 0.041 0.01 0.09 0 0.162-0.06 0.021-0.017 0.038-0.039 7e-3 -0.01 0.013-0.01 9e-3 0 0.012 0.013 0 0.011-0.034 0.043-0.083 0.075-0.193 0.075-0.09 0-0.132-0.077-0.025-0.045-0.025-0.104 0-0.131 0.102-0.212 0.075-0.06 0.16-0.06 0.072 0 0.098 0.05 9e-3 0.016 9e-3 0.035 0 0.052-0.045 0.086l-1e-3 1e-3q-0.013 9e-3 -0.029 0.016-0.055 0.023-0.153 0.023m-0.047-0.022h0.041q0.201 0 0.201-0.104 0-0.04-0.039-0.057-0.014-5e-3 -0.035-6e-3 -0.056 0-0.103 0.046-0.045 0.044-0.065 0.121z" style="paint-order:stroke fill markers"/>
      </g>
      <g transform="matrix(.5 0 0 .5 7.0382 7.303)">
       <path d="m0.045 0.122 0.112-0.445q7e-3 -0.03 7e-3 -0.051 0-0.046-0.031-0.046-0.041 0-0.067 0.095-3e-3 0.011-6e-3 0.024-0.011 0.022-0.017 0.023-0.012 0-0.012-0.01 0-0.016 0.018-0.067 7e-3 -0.018 0.013-0.03 0.024-0.049 0.06-0.056 7e-3 -1e-3 0.014-1e-3 0.054 0 0.079 0.044v1e-3q8e-3 0.013 0.011 0.03 0.063-0.075 0.131-0.075 0.071 0 0.109 0.064 0.022 0.045 0.024 0.096 0 0.108-0.076 0.2-0.069 0.084-0.151 0.092-7e-3 1e-3 -0.014 1e-3 -0.063 0-0.092-0.064-0.037 0.132-0.048 0.194-1e-3 5e-3 -1e-3 6e-3 0 0.011 0.013 0.014h1e-3q0.012 2e-3 0.036 2e-3 0.022 0 0.024 0.011 0 0.02-0.018 0.02l-0.098-3e-3h-1e-3l-0.082 3e-3h-2e-3q-0.013 0-0.013-0.012 6e-3 -0.018 0.023-0.019 0.037 0 0.045-0.013l1e-3 -1e-3q2e-3 -4e-3 4e-3 -0.011 1e-3 -5e-3 4e-3 -0.016m0.176-0.434-0.049 0.196q-3e-3 0.012-3e-3 0.016 0 0.023 0.018 0.052 0.011 0.019 0.028 0.029 0.015 8e-3 0.033 8e-3 0.051 0 0.096-0.064 0.013-0.018 0.023-0.039 0.027-0.057 0.045-0.154 6e-3 -0.035 6e-3 -0.058 0-0.079-0.048-0.092-8e-3 -2e-3 -0.016-2e-3 -0.038 0-0.081 0.038-0.043 0.036-0.052 0.07z" style="paint-order:stroke fill markers"/>
      </g>
      <g transform="matrix(.5 0 0 .5 7.2897 7.303)">
       <path d="m0.203-1e-3q0 0.097-0.063 0.17-0.017 0.02-0.028 0.024-0.01 0-0.01-0.011 0-5e-3 0.011-0.016 0.06-0.06 0.067-0.147 1e-3 -0.01 1e-3 -0.02 0-0.015-2e-3 -0.015-1e-3 0-5e-3 3e-3 -0.014 0.013-0.035 0.013-0.037 0-0.049-0.034-4e-3 -9e-3 -4e-3 -0.019 0-0.036 0.031-0.049 0.01-4e-3 0.022-4e-3 0.044 0 0.059 0.058 5e-3 0.021 5e-3 0.047z" style="paint-order:stroke fill markers"/>
      </g>
      <g transform="matrix(.5 0 0 .5 7.4287 7.303)">
       <path d="m0.76-0.695-0.063 0.255q-5e-3 0.018-0.01 0.019l-1e-3 1e-3h-7e-3q-0.015 0-0.015-0.01l3e-3 -0.049v-2e-3q0-0.124-0.078-0.171l-1e-3 -1e-3q-0.035-0.021-0.082-0.021-0.106 0-0.201 0.079-0.024 0.019-0.043 0.042-0.095 0.111-0.117 0.282-4e-3 0.031-4e-3 0.054 0 0.14 0.106 0.189 0.041 0.019 0.09 0.019 0.094 0 0.184-0.073 0.07-0.059 0.101-0.158 2e-3 -0.01 0.013-0.01 0.012 0 0.012 0.01 0 0.018-0.023 0.064-0.031 0.063-0.087 0.112-0.099 0.086-0.216 0.086-0.128 0-0.205-0.088-0.066-0.075-0.066-0.186 0-0.149 0.109-0.279 0.101-0.121 0.239-0.16 0.051-0.014 0.1-0.014 0.109 0 0.166 0.089l0.07-0.077q0.012-0.012 0.015-0.012 0.011 0 0.011 0.01z" style="paint-order:stroke fill markers"/>
      </g>
      <g transform="matrix(.5 0 0 .5 7.8222 7.303)">
       <path d="m0.74-0.436q0 0.155-0.11 0.287-0.099 0.12-0.232 0.158-0.047 0.013-0.093 0.013-0.125 0-0.197-0.088-0.059-0.072-0.059-0.179 0-0.15 0.107-0.284 0.099-0.121 0.232-0.161 0.049-0.015 0.097-0.015 0.127 0 0.199 0.092 0.056 0.072 0.056 0.177m-0.429 0.432q0.094 0 0.181-0.084 0.018-0.017 0.033-0.036 0.098-0.122 0.121-0.291 5e-3 -0.033 5e-3 -0.06 0-0.137-0.092-0.186-1e-3 0-2e-3 -1e-3 -0.036-0.018-0.078-0.018-0.094 0-0.182 0.081-0.036 0.032-0.064 0.075-0.076 0.115-0.089 0.275-2e-3 0.018-2e-3 0.032 0 0.128 0.077 0.184 0.04 0.029 0.092 0.029z" style="paint-order:stroke fill markers"/>
      </g>
      <g transform="matrix(.5 0 0 .5 8.2177 7.303)">
       <path d="m0.628-0.569-0.36 0.573q-0.016 0.017-0.028 0.018-0.014 0-0.018-0.012-1e-3 -4e-3 -2e-3 -0.011l-0.079-0.617q-3e-3 -0.023-0.014-0.028-0.011-6e-3 -0.046-6e-3 -0.023 0-0.025-0.012 0-0.019 0.019-0.019l0.053 2e-3h1e-3l0.053 1e-3h2e-3l0.123-3e-3h1e-3q0.014 0 0.014 0.011-8e-3 0.019-0.025 0.02-0.064 0-0.069 0.03l0.068 0.529 0.307-0.488 0.013-0.028q2e-3 -6e-3 2e-3 -0.01 0-0.03-0.046-0.033-0.016 0-0.016-0.012 0-0.019 0.019-0.019l0.098 3e-3h1e-3l0.08-3e-3h2e-3q0.013 0 0.013 0.012 0 0.018-0.013 0.019-0.052 3e-3 -0.082 0.028-0.011 9e-3 -0.022 0.022-0.012 0.014-0.024 0.033z" style="paint-order:stroke fill markers"/>
      </g>
      <g transform="translate(8.0646 6.112)">
       <path d="m0.42383 2.96-0.229-1.3311-0.066895 0.1333-0.018066-0.019043 0.14307-0.2832 0.21387 1.2471 0.51416-2.7319q4.8828e-4 -0.0063477 0.0065918-0.010742 0.0061035-0.0043945 0.012451-0.0043945 0.0083 0 0.01416 0.0058594t0.00586 0.01416v0.0039063l-0.55615 2.9609q-0.001465 0.00586-0.006592 0.010498-0.005127 0.00464-0.011475 0.00464z" style="paint-order:stroke fill markers"/>
      </g>
      <rect x="9.0646" y="6.072" width="23.741" height=".04"/>
      <g transform="translate(9.0646 6.5989)">
       <path d="m0.66211 2.3569q-0.12305-0.10889-0.21094-0.24805-0.087891-0.13916-0.14111-0.29395-0.053223-0.15479-0.077637-0.32007-0.024414-0.16528-0.024414-0.33472 0-0.17041 0.024414-0.33618 0.024414-0.16577 0.077393-0.32007t0.14111-0.2937q0.088135-0.1394 0.21118-0.24829 0-0.0019531 0.004883-0.0019531h0.025879q0.00293 0 0.005615 0.0029297 0.002686 0.0029297 0.002686 0.0063477 0 0.0039063-0.001953 0.0058594-0.11426 0.11279-0.19312 0.25098-0.078857 0.13818-0.12524 0.29102-0.046387 0.15283-0.066162 0.31396-0.019775 0.16113-0.019775 0.3291 0 0.16748 0.019531 0.32642 0.019531 0.15894 0.066406 0.31372 0.046875 0.15479 0.12598 0.29297 0.079102 0.13818 0.19238 0.25098 0.001953 0.00195 0.001953 0.00586 0 0.00293-0.00293 0.00586t-0.005371 0.00293h-0.025879q-0.004883 0-0.004883-0.00195z" style="paint-order:stroke fill markers"/>
      </g>
      <g transform="translate(9.8478 7.3324)">
       <path d="m0.756-0.578-0.14 0.557q-5e-3 0.019-0.01 0.02l-1e-3 1e-3h-5e-3q-0.01 0-0.016-0.012-1e-3 -3e-3 -3e-3 -7e-3l-0.249-0.589-9e-3 -0.018-0.132 0.528q-4e-3 0.015-4e-3 0.023 0 0.034 0.043 0.042 0.01 2e-3 0.023 2e-3 0.02 0 0.02 0.011 0 0.02-0.018 0.02l-0.1-3e-3h-3e-3l-0.099 3e-3h-1e-3q-0.013 0-0.013-0.011 0-0.02 0.017-0.02 0.079-3e-3 0.1-0.05 4e-3 -0.01 8e-3 -0.025l0.134-0.537q0-9e-3 -0.068-9e-3 -0.026 0-0.028-0.011 0-0.018 0.015-0.02h0.148q0.021 0 0.026 7e-3 2e-3 3e-3 6e-3 0.012l0.221 0.522 0.112-0.445q3e-3 -9e-3 3e-3 -0.021 0-0.043-0.068-0.044-0.018 0-0.018-0.011 0-0.02 0.018-0.02l0.101 3e-3h1e-3l0.1-3e-3h1e-3q0.013 0 0.013 0.011 0 0.02-0.017 0.02-0.078 3e-3 -0.1 0.049-4e-3 0.01-8e-3 0.025z" style="paint-order:stroke fill markers"/>
      </g>
      <g transform="matrix(.7 0 0 .7 10.651 7.4824)">
       <path d="m0.303-0.316-0.062 0.25-3e-3 0.017q0 0.017 0.046 0.018h0.019q0.026 0 0.028 0.011 0 0.02-0.02 0.02l-0.064-2e-3h-1e-3l-0.062-1e-3h-2e-3l-0.126 3e-3h-1e-3q-0.015 0-0.015-0.012 0-0.017 0.016-0.019h0.012q0.065 0 0.078-0.014 6e-3 -7e-3 0.012-0.028 0-1e-3 1e-3 -5e-3l0.134-0.537q4e-3 -0.016 4e-3 -0.019 0-0.012-0.016-0.015h-1e-3q-2e-3 -1e-3 -5e-3 -1e-3 -0.024-2e-3 -0.043-2e-3 -0.026 0-0.028-8e-3 -1e-3 -2e-3 -1e-3 -4e-3 0-0.017 0.017-0.019h0.337q0.121 0 0.173 0.074 0.024 0.035 0.024 0.077 0 0.081-0.083 0.147-0.088 0.069-0.198 0.069h-0.17m0.072-0.298-0.068 0.272h0.141q0.095 0 0.154-0.053 0.041-0.038 0.056-0.127v-1e-3q3e-3 -0.019 3e-3 -0.033 0-0.096-0.136-0.096h-0.096q-0.036 0-0.044 0.01v1e-3h-1e-3v1e-3q-4e-3 6e-3 -9e-3 0.026z" style="paint-order:stroke fill markers"/>
      </g>
      <g transform="matrix(.7 0 0 .7 11.197 7.4824)">
       <path d="m0.088-0.059 0.058-0.231q0.016-0.064 0.016-0.084 0-0.046-0.031-0.046-0.041 0-0.067 0.095-3e-3 0.011-6e-3 0.024-0.011 0.022-0.017 0.023-0.012 0-0.012-0.01 0-0.016 0.018-0.067 7e-3 -0.018 0.013-0.03 0.024-0.049 0.06-0.056 7e-3 -1e-3 0.014-1e-3 0.056 0 0.081 0.048 6e-3 0.011 9e-3 0.024 1e-3 2e-3 1e-3 5e-3 0.058-0.072 0.128-0.077 0.056 0 0.076 0.039 7e-3 0.012 7e-3 0.026 0 0.039-0.033 0.054-0.011 5e-3 -0.022 5e-3 -0.031 0-0.037-0.027-1e-3 -4e-3 -1e-3 -8e-3 0-0.033 0.034-0.049l1e-3 -1e-3q8e-3 -3e-3 0.017-5e-3l-0.02-9e-3q-0.013-2e-3 -0.022-3e-3 -0.042 0-0.08 0.033-0.031 0.028-0.053 0.074-2e-3 5e-3 -3e-3 8e-3l-0.032 0.13-0.04 0.158q-9e-3 0.026-0.037 0.028-0.025-5e-3 -0.029-0.027 0 2e-3 9e-3 -0.043z" style="paint-order:stroke fill markers"/>
      </g>
      <g transform="matrix(.7 0 0 .7 11.533 7.4824)">
       <path d="m0.469-0.273q0 0.106-0.081 0.193-0.077 0.084-0.173 0.09-7e-3 1e-3 -0.014 1e-3 -0.087 0-0.132-0.069-0.028-0.043-0.028-0.1 0-0.103 0.08-0.191 0.076-0.084 0.172-0.092 8e-3 -1e-3 0.016-1e-3 0.086 0 0.131 0.067 0.029 0.043 0.029 0.102m-0.267 0.262q0.059 0 0.111-0.058 0.014-0.016 0.025-0.034 0.042-0.072 0.056-0.179 1e-3 -8e-3 1e-3 -0.016v-1e-3l1e-3 -1e-3v-0.012q0-0.074-0.049-0.099-0.017-9e-3 -0.039-9e-3 -0.061 0-0.115 0.064-7e-3 9e-3 -0.013 0.018-4e-3 5e-3 -7e-3 0.01-0.036 0.058-0.053 0.162-5e-3 0.028-5e-3 0.046 0 0.083 0.058 0.104 0.014 5e-3 0.029 5e-3z" style="paint-order:stroke fill markers"/>
      </g>
      <g transform="matrix(.7 0 0 .7 11.872 7.4824)">
       <path d="m0.206-0.4-0.074 0.295q-6e-3 0.025-6e-3 0.048 0 0.046 0.031 0.046 0.066 0 0.116-0.097l0.014-0.031q6e-3 -0.013 0.015-0.014 0.012 0 0.012 0.01 0 0.013-0.026 0.057-0.058 0.097-0.133 0.097-0.058 0-0.082-0.048-0.01-0.02-0.01-0.044 0-0.019 0.061-0.259l0.015-0.06h-0.088q-0.025 0-0.027-8e-3h-1e-3v-4e-3q0-0.017 0.016-0.019h0.108l0.039-0.159q9e-3 -0.035 0.04-0.036 0.026 0 0.029 0.027 0 6e-3 -0.041 0.168h0.088q0.026 0 0.028 0.011 0 0.018-0.016 0.02h-0.014z" style="paint-order:stroke fill markers"/>
      </g>
      <g transform="matrix(.7 0 0 .7 12.125 7.4824)">
       <path d="m0.661-0.23h-0.545q-0.032 0-0.033-0.02 0-0.02 0.033-0.02h0.545q0.032 0 0.033 0.02 0 0.02-0.033 0.02z" style="paint-order:stroke fill markers"/>
      </g>
      <g transform="matrix(.7 0 0 .7 12.67 7.4824)">
       <path d="m0.76-0.695-0.063 0.255q-5e-3 0.018-0.01 0.019l-1e-3 1e-3h-7e-3q-0.015 0-0.015-0.01l3e-3 -0.049v-2e-3q0-0.124-0.078-0.171l-1e-3 -1e-3q-0.035-0.021-0.082-0.021-0.107 0-0.203 0.081-0.027 0.022-0.047 0.048-0.096 0.118-0.113 0.29-2e-3 0.021-2e-3 0.036 0 0.137 0.104 0.188 0.044 0.022 0.097 0.022 0.085 0 0.141-0.043 0.04-0.03 0.052-0.078 0.021-0.078 0.021-0.091t-0.015-0.017q-5e-3 -1e-3 -0.016-2e-3 -0.023-2e-3 -0.053-2e-3 -0.027 0-0.029-6e-3 -1e-3 -1e-3 -1e-3 -5e-3 0-0.02 0.021-0.02l0.139 3e-3h1e-3l0.104-3e-3h1e-3q0.013 0 0.013 0.011 0 0.02-0.016 0.02-0.046 1e-3 -0.055 0.01-6e-3 7e-3 -0.014 0.038 0-2e-3 -0.01 0.039-2e-3 7e-3 -3e-3 0.012l-0.019 0.077q-0.014 0.058-0.017 0.061 0 4e-3 -7e-3 4e-3 -0.011 0-0.034-0.038-7e-3 -0.013-0.011-0.024-0.034 0.038-0.077 0.057l-0.01 4e-3q-0.058 0.024-0.125 0.024-0.135 0-0.212-0.094-0.061-0.074-0.061-0.18 0-0.149 0.109-0.279 0.101-0.121 0.239-0.16 0.051-0.014 0.1-0.014 0.109 0 0.166 0.089l0.07-0.077q0.012-0.012 0.015-0.012 0.011 0 0.011 0.01z" style="paint-order:stroke fill markers"/>
      </g>
      <g transform="matrix(.7 0 0 .7 13.22 7.4824)">
       <path d="m0.661-0.23h-0.545q-0.032 0-0.033-0.02 0-0.02 0.033-0.02h0.545q0.032 0 0.033 0.02 0 0.02-0.033 0.02z" style="paint-order:stroke fill markers"/>
      </g>
      <g transform="matrix(.7 0 0 .7 13.764 7.4824)">
       <path d="m0.179-0.115 0.348-0.584q0.01-0.016 0.026-0.017 0.015 0 0.017 0.01 1e-3 3e-3 2e-3 0.014l0.061 0.625q3e-3 0.025 0.012 0.03h1e-3v1e-3q0.012 5e-3 0.052 5e-3 0.022 0 0.023 0.011 0 0.02-0.018 0.02l-0.112-3e-3h-1e-3l-0.124 3e-3h-1e-3q-0.014 0-0.014-0.011 8e-3 -0.019 0.024-0.02 0.072 0 0.072-0.033 0 1e-3 -0.016-0.167h-0.251l-0.076 0.128q-0.014 0.025-0.014 0.037 0 0.031 0.047 0.035 0.016 0 0.016 0.012 0 0.019-0.019 0.019l-0.096-3e-3h-4e-3l-0.084 3e-3h-2e-3q-0.013 0-0.013-0.011 0-0.018 0.015-0.019v-1e-3h6e-3q0.063-4e-3 0.103-0.054 0.01-0.013 0.02-0.03m0.12-0.147h0.229l-0.032-0.33z" style="paint-order:stroke fill markers"/>
      </g>
      <rect x="9.8348" y="7.7389" width="4.4675" height=".039999"/>
      <g transform="translate(9.8348 8.6948)">
       <path d="m0.756-0.578-0.14 0.557q-5e-3 0.019-0.01 0.02l-1e-3 1e-3h-5e-3q-0.01 0-0.016-0.012-1e-3 -3e-3 -3e-3 -7e-3l-0.249-0.589-9e-3 -0.018-0.132 0.528q-4e-3 0.015-4e-3 0.023 0 0.034 0.043 0.042 0.01 2e-3 0.023 2e-3 0.02 0 0.02 0.011 0 0.02-0.018 0.02l-0.1-3e-3h-3e-3l-0.099 3e-3h-1e-3q-0.013 0-0.013-0.011 0-0.02 0.017-0.02 0.079-3e-3 0.1-0.05 4e-3 -0.01 8e-3 -0.025l0.134-0.537q0-9e-3 -0.068-9e-3 -0.026 0-0.028-0.011 0-0.018 0.015-0.02h0.148q0.021 0 0.026 7e-3 2e-3 3e-3 6e-3 0.012l0.221 0.522 0.112-0.445q3e-3 -9e-3 3e-3 -0.021 0-0.043-0.068-0.044-0.018 0-0.018-0.011 0-0.02 0.018-0.02l0.101 3e-3h1e-3l0.1-3e-3h1e-3q0.013 0 0.013 0.011 0 0.02-0.017 0.02-0.078 3e-3 -0.1 0.049-4e-3 0.01-8e-3 0.025z" style="paint-order:stroke fill markers"/>
      </g>
      <g transform="matrix(.7 0 0 .7 10.638 8.8448)">
       <path d="m0.303-0.316-0.062 0.25-3e-3 0.017q0 0.017 0.046 0.018h0.019q0.026 0 0.028 0.011 0 0.02-0.02 0.02l-0.064-2e-3h-1e-3l-0.062-1e-3h-2e-3l-0.126 3e-3h-1e-3q-0.015 0-0.015-0.012 0-0.017 0.016-0.019h0.012q0.065 0 0.078-0.014 6e-3 -7e-3 0.012-0.028 0-1e-3 1e-3 -5e-3l0.134-0.537q4e-3 -0.016 4e-3 -0.019 0-0.012-0.016-0.015h-1e-3q-2e-3 -1e-3 -5e-3 -1e-3 -0.024-2e-3 -0.043-2e-3 -0.026 0-0.028-8e-3 -1e-3 -2e-3 -1e-3 -4e-3 0-0.017 0.017-0.019h0.337q0.121 0 0.173 0.074 0.024 0.035 0.024 0.077 0 0.081-0.083 0.147-0.088 0.069-0.198 0.069h-0.17m0.072-0.298-0.068 0.272h0.141q0.095 0 0.154-0.053 0.041-0.038 0.056-0.127v-1e-3q3e-3 -0.019 3e-3 -0.033 0-0.096-0.136-0.096h-0.096q-0.036 0-0.044 0.01v1e-3h-1e-3v1e-3q-4e-3 6e-3 -9e-3 0.026z" style="paint-order:stroke fill markers"/>
      </g>
      <g transform="matrix(.7 0 0 .7 11.185 8.8448)">
       <path d="m0.088-0.059 0.058-0.231q0.016-0.064 0.016-0.084 0-0.046-0.031-0.046-0.041 0-0.067 0.095-3e-3 0.011-6e-3 0.024-0.011 0.022-0.017 0.023-0.012 0-0.012-0.01 0-0.016 0.018-0.067 7e-3 -0.018 0.013-0.03 0.024-0.049 0.06-0.056 7e-3 -1e-3 0.014-1e-3 0.056 0 0.081 0.048 6e-3 0.011 9e-3 0.024 1e-3 2e-3 1e-3 5e-3 0.058-0.072 0.128-0.077 0.056 0 0.076 0.039 7e-3 0.012 7e-3 0.026 0 0.039-0.033 0.054-0.011 5e-3 -0.022 5e-3 -0.031 0-0.037-0.027-1e-3 -4e-3 -1e-3 -8e-3 0-0.033 0.034-0.049l1e-3 -1e-3q8e-3 -3e-3 0.017-5e-3l-0.02-9e-3q-0.013-2e-3 -0.022-3e-3 -0.042 0-0.08 0.033-0.031 0.028-0.053 0.074-2e-3 5e-3 -3e-3 8e-3l-0.032 0.13-0.04 0.158q-9e-3 0.026-0.037 0.028-0.025-5e-3 -0.029-0.027 0 2e-3 9e-3 -0.043z" style="paint-order:stroke fill markers"/>
      </g>
      <g transform="matrix(.7 0 0 .7 11.52 8.8448)">
       <path d="m0.469-0.273q0 0.106-0.081 0.193-0.077 0.084-0.173 0.09-7e-3 1e-3 -0.014 1e-3 -0.087 0-0.132-0.069-0.028-0.043-0.028-0.1 0-0.103 0.08-0.191 0.076-0.084 0.172-0.092 8e-3 -1e-3 0.016-1e-3 0.086 0 0.131 0.067 0.029 0.043 0.029 0.102m-0.267 0.262q0.059 0 0.111-0.058 0.014-0.016 0.025-0.034 0.042-0.072 0.056-0.179 1e-3 -8e-3 1e-3 -0.016v-1e-3l1e-3 -1e-3v-0.012q0-0.074-0.049-0.099-0.017-9e-3 -0.039-9e-3 -0.061 0-0.115 0.064-7e-3 9e-3 -0.013 0.018-4e-3 5e-3 -7e-3 0.01-0.036 0.058-0.053 0.162-5e-3 0.028-5e-3 0.046 0 0.083 0.058 0.104 0.014 5e-3 0.029 5e-3z" style="paint-order:stroke fill markers"/>
      </g>
      <g transform="matrix(.7 0 0 .7 11.859 8.8448)">
       <path d="m0.206-0.4-0.074 0.295q-6e-3 0.025-6e-3 0.048 0 0.046 0.031 0.046 0.066 0 0.116-0.097l0.014-0.031q6e-3 -0.013 0.015-0.014 0.012 0 0.012 0.01 0 0.013-0.026 0.057-0.058 0.097-0.133 0.097-0.058 0-0.082-0.048-0.01-0.02-0.01-0.044 0-0.019 0.061-0.259l0.015-0.06h-0.088q-0.025 0-0.027-8e-3h-1e-3v-4e-3q0-0.017 0.016-0.019h0.108l0.039-0.159q9e-3 -0.035 0.04-0.036 0.026 0 0.029 0.027 0 6e-3 -0.041 0.168h0.088q0.026 0 0.028 0.011 0 0.018-0.016 0.02h-0.014z" style="paint-order:stroke fill markers"/>
      </g>
      <g transform="matrix(.7 0 0 .7 12.112 8.8448)">
       <path d="m0.661-0.23h-0.545q-0.032 0-0.033-0.02 0-0.02 0.033-0.02h0.545q0.032 0 0.033 0.02 0 0.02-0.033 0.02z" style="paint-order:stroke fill markers"/>
      </g>
      <g transform="matrix(.7 0 0 .7 12.657 8.8448)">
       <path d="m0.76-0.695-0.063 0.255q-5e-3 0.018-0.01 0.019l-1e-3 1e-3h-7e-3q-0.015 0-0.015-0.01l3e-3 -0.049v-2e-3q0-0.124-0.078-0.171l-1e-3 -1e-3q-0.035-0.021-0.082-0.021-0.107 0-0.203 0.081-0.027 0.022-0.047 0.048-0.096 0.118-0.113 0.29-2e-3 0.021-2e-3 0.036 0 0.137 0.104 0.188 0.044 0.022 0.097 0.022 0.085 0 0.141-0.043 0.04-0.03 0.052-0.078 0.021-0.078 0.021-0.091t-0.015-0.017q-5e-3 -1e-3 -0.016-2e-3 -0.023-2e-3 -0.053-2e-3 -0.027 0-0.029-6e-3 -1e-3 -1e-3 -1e-3 -5e-3 0-0.02 0.021-0.02l0.139 3e-3h1e-3l0.104-3e-3h1e-3q0.013 0 0.013 0.011 0 0.02-0.016 0.02-0.046 1e-3 -0.055 0.01-6e-3 7e-3 -0.014 0.038 0-2e-3 -0.01 0.039-2e-3 7e-3 -3e-3 0.012l-0.019 0.077q-0.014 0.058-0.017 0.061 0 4e-3 -7e-3 4e-3 -0.011 0-0.034-0.038-7e-3 -0.013-0.011-0.024-0.034 0.038-0.077 0.057l-0.01 4e-3q-0.058 0.024-0.125 0.024-0.135 0-0.212-0.094-0.061-0.074-0.061-0.18 0-0.149 0.109-0.279 0.101-0.121 0.239-0.16 0.051-0.014 0.1-0.014 0.109 0 0.166 0.089l0.07-0.077q0.012-0.012 0.015-0.012 0.011 0 0.011 0.01z" style="paint-order:stroke fill markers"/>
      </g>
      <g transform="matrix(.7 0 0 .7 13.207 8.8448)">
       <path d="m0.661-0.23h-0.545q-0.032 0-0.033-0.02 0-0.02 0.033-0.02h0.545q0.032 0 0.033 0.02 0 0.02-0.033 0.02z" style="paint-order:stroke fill markers"/>
      </g>
      <g transform="matrix(.7 0 0 .7 13.751 8.8448)">
       <path d="m0.76-0.695-0.063 0.255q-5e-3 0.018-0.01 0.019l-1e-3 1e-3h-7e-3q-0.015 0-0.015-0.01l3e-3 -0.049v-2e-3q0-0.124-0.078-0.171l-1e-3 -1e-3q-0.035-0.021-0.082-0.021-0.106 0-0.201 0.079-0.024 0.019-0.043 0.042-0.095 0.111-0.117 0.282-4e-3 0.031-4e-3 0.054 0 0.14 0.106 0.189 0.041 0.019 0.09 0.019 0.094 0 0.184-0.073 0.07-0.059 0.101-0.158 2e-3 -0.01 0.013-0.01 0.012 0 0.012 0.01 0 0.018-0.023 0.064-0.031 0.063-0.087 0.112-0.099 0.086-0.216 0.086-0.128 0-0.205-0.088-0.066-0.075-0.066-0.186 0-0.149 0.109-0.279 0.101-0.121 0.239-0.16 0.051-0.014 0.1-0.014 0.109 0 0.166 0.089l0.07-0.077q0.012-0.012 0.015-0.012 0.011 0 0.011 0.01z" style="paint-order:stroke fill markers"/>
      </g>
      <g transform="translate(14.336 6.5989)">
       <path d="m0.042969 2.3589q-0.0087891 0-0.0087891-0.00879 0-0.00391 0.0019531-0.00586 0.11426-0.11279 0.19287-0.25122 0.078613-0.13843 0.125-0.29102 0.046387-0.15259 0.066162-0.31201 0.019775-0.15942 0.019775-0.33081 0-0.17334-0.019775-0.33154-0.019775-0.1582-0.065674-0.31006-0.045898-0.15186-0.12549-0.29126-0.07959-0.1394-0.19287-0.25122-0.0019531-0.0019531-0.0019531-0.0058594 0-0.0092773 0.0087891-0.0092773h0.025879q0.003418 0 0.0053711 0.0019531 0.12354 0.10938 0.21143 0.24878 0.087891 0.1394 0.14062 0.29419 0.052734 0.15479 0.07666 0.31982t0.023926 0.33545q0 0.16943-0.023926 0.33398t-0.07666 0.31958-0.14062 0.29443-0.21143 0.24878q-0.0019531 0.00195-0.0053711 0.00195z" style="paint-order:stroke fill markers"/>
      </g>
      <g transform="matrix(.7 0 0 .7 14.956 6.8292)">
       <path d="m0.917-0.567-0.328 0.57q-0.011 0.019-0.024 0.019-0.012 0-0.014-0.012-1e-3 -5e-3 -2e-3 -0.014l-0.037-0.505-0.294 0.51q-0.011 0.019-0.019 0.02l-1e-3 1e-3h-4e-3q-0.013 0-0.015-0.015-1e-3 -4e-3 -1e-3 -0.011l-0.045-0.611q-2e-3 -0.026-0.012-0.032h-2e-3q-0.01-5e-3 -0.039-5e-3 -0.023 0-0.025-0.012 0-0.019 0.018-0.019l0.104 3e-3h1e-3l0.121-3e-3h2e-3q0.014 0 0.014 0.011-4e-3 0.019-0.021 0.02-0.075 1e-3 -0.076 0.036l0.038 0.507 0.253-0.441-6e-3 -0.077q-2e-3 -0.019-0.02-0.023-0.011-2e-3 -0.033-2e-3t-0.024-0.011q0-0.02 0.019-0.02l0.104 3e-3h1e-3l0.116-3e-3h6e-3q0.015 0 0.015 0.011 0 0.018-0.015 0.02h-0.012q-0.068 1e-3 -0.07 0.035v0.012l0.037 0.496 0.27-0.471q0.013-0.023 0.013-0.033 0-0.036-0.059-0.039-0.015 0-0.015-0.012 0-0.019 0.019-0.019l0.103 3e-3h1e-3l0.075-3e-3h2e-3q0.01 0 0.012 0.011 0 0.018-0.015 0.02h-4e-3q-0.06 5e-3 -0.095 0.057l-1e-3 1e-3v1e-3q-7e-3 0.01-0.016 0.026z" style="paint-order:stroke fill markers"/>
      </g>
      <g transform="matrix(.5 0 0 .5 15.617 6.9342)">
       <path d="m0.303-0.316-0.062 0.25-3e-3 0.017q0 0.017 0.046 0.018h0.019q0.026 0 0.028 0.011 0 0.02-0.02 0.02l-0.064-2e-3h-1e-3l-0.062-1e-3h-2e-3l-0.126 3e-3h-1e-3q-0.015 0-0.015-0.012 0-0.017 0.016-0.019h0.012q0.065 0 0.078-0.014 6e-3 -7e-3 0.012-0.028 0-1e-3 1e-3 -5e-3l0.134-0.537q4e-3 -0.016 4e-3 -0.019 0-0.012-0.016-0.015h-1e-3q-2e-3 -1e-3 -5e-3 -1e-3 -0.024-2e-3 -0.043-2e-3 -0.026 0-0.028-8e-3 -1e-3 -2e-3 -1e-3 -4e-3 0-0.017 0.017-0.019h0.337q0.121 0 0.173 0.074 0.024 0.035 0.024 0.077 0 0.081-0.083 0.147-0.088 0.069-0.198 0.069h-0.17m0.072-0.298-0.068 0.272h0.141q0.095 0 0.154-0.053 0.041-0.038 0.056-0.127v-1e-3q3e-3 -0.019 3e-3 -0.033 0-0.096-0.136-0.096h-0.096q-0.036 0-0.044 0.01v1e-3h-1e-3v1e-3q-4e-3 6e-3 -9e-3 0.026z" style="paint-order:stroke fill markers"/>
      </g>
      <g transform="matrix(.5 0 0 .5 16.007 6.9342)">
       <path d="m0.088-0.059 0.058-0.231q0.016-0.064 0.016-0.084 0-0.046-0.031-0.046-0.041 0-0.067 0.095-3e-3 0.011-6e-3 0.024-0.011 0.022-0.017 0.023-0.012 0-0.012-0.01 0-0.016 0.018-0.067 7e-3 -0.018 0.013-0.03 0.024-0.049 0.06-0.056 7e-3 -1e-3 0.014-1e-3 0.056 0 0.081 0.048 6e-3 0.011 9e-3 0.024 1e-3 2e-3 1e-3 5e-3 0.058-0.072 0.128-0.077 0.056 0 0.076 0.039 7e-3 0.012 7e-3 0.026 0 0.039-0.033 0.054-0.011 5e-3 -0.022 5e-3 -0.031 0-0.037-0.027-1e-3 -4e-3 -1e-3 -8e-3 0-0.033 0.034-0.049l1e-3 -1e-3q8e-3 -3e-3 0.017-5e-3l-0.02-9e-3q-0.013-2e-3 -0.022-3e-3 -0.042 0-0.08 0.033-0.031 0.028-0.053 0.074-2e-3 5e-3 -3e-3 8e-3l-0.032 0.13-0.04 0.158q-9e-3 0.026-0.037 0.028-0.025-5e-3 -0.029-0.027 0 2e-3 9e-3 -0.043z" style="paint-order:stroke fill markers"/>
      </g>
      <g transform="matrix(.5 0 0 .5 16.247 6.9342)">
       <path d="m0.469-0.273q0 0.106-0.081 0.193-0.077 0.084-0.173 0.09-7e-3 1e-3 -0.014 1e-3 -0.087 0-0.132-0.069-0.028-0.043-0.028-0.1 0-0.103 0.08-0.191 0.076-0.084 0.172-0.092 8e-3 -1e-3 0.016-1e-3 0.086 0 0.131 0.067 0.029 0.043 0.029 0.102m-0.267 0.262q0.059 0 0.111-0.058 0.014-0.016 0.025-0.034 0.042-0.072 0.056-0.179 1e-3 -8e-3 1e-3 -0.016v-1e-3l1e-3 -1e-3v-0.012q0-0.074-0.049-0.099-0.017-9e-3 -0.039-9e-3 -0.061 0-0.115 0.064-7e-3 9e-3 -0.013 0.018-4e-3 5e-3 -7e-3 0.01-0.036 0.058-0.053 0.162-5e-3 0.028-5e-3 0.046 0 0.083 0.058 0.104 0.014 5e-3 0.029 5e-3z" style="paint-order:stroke fill markers"/>
      </g>
      <g transform="matrix(.5 0 0 .5 16.489 6.9342)">
       <path d="m0.206-0.4-0.074 0.295q-6e-3 0.025-6e-3 0.048 0 0.046 0.031 0.046 0.066 0 0.116-0.097l0.014-0.031q6e-3 -0.013 0.015-0.014 0.012 0 0.012 0.01 0 0.013-0.026 0.057-0.058 0.097-0.133 0.097-0.058 0-0.082-0.048-0.01-0.02-0.01-0.044 0-0.019 0.061-0.259l0.015-0.06h-0.088q-0.025 0-0.027-8e-3h-1e-3v-4e-3q0-0.017 0.016-0.019h0.108l0.039-0.159q9e-3 -0.035 0.04-0.036 0.026 0 0.029 0.027 0 6e-3 -0.041 0.168h0.088q0.026 0 0.028 0.011 0 0.018-0.016 0.02h-0.014z" style="paint-order:stroke fill markers"/>
      </g>
      <g transform="translate(16.85 8.0089)">
       <path d="m0.261-0.229 0.014 0.158q3e-3 0.037-0.026 0.037-0.018 0-0.024-0.016-2e-3 -5e-3 -1e-3 -0.011v-5e-3l0.014-0.164-0.126 0.093q-0.012 9e-3 -0.02 9e-3 -0.018 0-0.025-0.018-2e-3 -5e-3 -2e-3 -0.01 0-0.017 0.021-0.026l0.141-0.068-0.141-0.067q-0.021-9e-3 -0.021-0.026 0-0.019 0.019-0.026 4e-3 -2e-3 8e-3 -2e-3 6e-3 0 0.02 0.01l0.126 0.092-0.014-0.159v-0.011q-4e-3 -0.016 0.014-0.023l1e-3 -1e-3h1e-3q5e-3 -2e-3 0.01-2e-3 0.028 0 0.025 0.036l-0.014 0.16 0.126-0.093q0.012-9e-3 0.02-9e-3 0.018 0 0.025 0.018 2e-3 5e-3 2e-3 0.01 0 0.017-0.021 0.026l-0.142 0.068 0.145 0.068q0.018 9e-3 0.018 0.025 0 0.019-0.019 0.026-4e-3 2e-3 -8e-3 2e-3 -8e-3 0-0.037-0.022z" style="paint-order:stroke fill markers"/>
      </g>
      <g transform="translate(17.573 6.5989)">
       <path d="m0.66211 2.3569q-0.12305-0.10889-0.21094-0.24805-0.087891-0.13916-0.14111-0.29395-0.053223-0.15479-0.077637-0.32007-0.024414-0.16528-0.024414-0.33472 0-0.17041 0.024414-0.33618 0.024414-0.16577 0.077393-0.32007t0.14111-0.2937q0.088135-0.1394 0.21118-0.24829 0-0.0019531 0.004883-0.0019531h0.025879q0.00293 0 0.005615 0.0029297 0.002686 0.0029297 0.002686 0.0063477 0 0.0039063-0.001953 0.0058594-0.11426 0.11279-0.19312 0.25098-0.078857 0.13818-0.12524 0.29102-0.046387 0.15283-0.066162 0.31396-0.019775 0.16113-0.019775 0.3291 0 0.16748 0.019531 0.32642 0.019531 0.15894 0.066406 0.31372 0.046875 0.15479 0.12598 0.29297 0.079102 0.13818 0.19238 0.25098 0.001953 0.00195 0.001953 0.00586 0 0.00293-0.00293 0.00586t-0.005371 0.00293h-0.025879q-0.004883 0-0.004883-0.00195z" style="paint-order:stroke fill markers"/>
      </g>
      <g transform="translate(18.356 7.3324)">
       <path d="m0.756-0.578-0.14 0.557q-5e-3 0.019-0.01 0.02l-1e-3 1e-3h-5e-3q-0.01 0-0.016-0.012-1e-3 -3e-3 -3e-3 -7e-3l-0.249-0.589-9e-3 -0.018-0.132 0.528q-4e-3 0.015-4e-3 0.023 0 0.034 0.043 0.042 0.01 2e-3 0.023 2e-3 0.02 0 0.02 0.011 0 0.02-0.018 0.02l-0.1-3e-3h-3e-3l-0.099 3e-3h-1e-3q-0.013 0-0.013-0.011 0-0.02 0.017-0.02 0.079-3e-3 0.1-0.05 4e-3 -0.01 8e-3 -0.025l0.134-0.537q0-9e-3 -0.068-9e-3 -0.026 0-0.028-0.011 0-0.018 0.015-0.02h0.148q0.021 0 0.026 7e-3 2e-3 3e-3 6e-3 0.012l0.221 0.522 0.112-0.445q3e-3 -9e-3 3e-3 -0.021 0-0.043-0.068-0.044-0.018 0-0.018-0.011 0-0.02 0.018-0.02l0.101 3e-3h1e-3l0.1-3e-3h1e-3q0.013 0 0.013 0.011 0 0.02-0.017 0.02-0.078 3e-3 -0.1 0.049-4e-3 0.01-8e-3 0.025z" style="paint-order:stroke fill markers"/>
      </g>
      <g transform="matrix(.7 0 0 .7 19.159 7.4824)">
       <path d="m0.303-0.316-0.062 0.25-3e-3 0.017q0 0.017 0.046 0.018h0.019q0.026 0 0.028 0.011 0 0.02-0.02 0.02l-0.064-2e-3h-1e-3l-0.062-1e-3h-2e-3l-0.126 3e-3h-1e-3q-0.015 0-0.015-0.012 0-0.017 0.016-0.019h0.012q0.065 0 0.078-0.014 6e-3 -7e-3 0.012-0.028 0-1e-3 1e-3 -5e-3l0.134-0.537q4e-3 -0.016 4e-3 -0.019 0-0.012-0.016-0.015h-1e-3q-2e-3 -1e-3 -5e-3 -1e-3 -0.024-2e-3 -0.043-2e-3 -0.026 0-0.028-8e-3 -1e-3 -2e-3 -1e-3 -4e-3 0-0.017 0.017-0.019h0.337q0.121 0 0.173 0.074 0.024 0.035 0.024 0.077 0 0.081-0.083 0.147-0.088 0.069-0.198 0.069h-0.17m0.072-0.298-0.068 0.272h0.141q0.095 0 0.154-0.053 0.041-0.038 0.056-0.127v-1e-3q3e-3 -0.019 3e-3 -0.033 0-0.096-0.136-0.096h-0.096q-0.036 0-0.044 0.01v1e-3h-1e-3v1e-3q-4e-3 6e-3 -9e-3 0.026z" style="paint-order:stroke fill markers"/>
      </g>
      <g transform="matrix(.7 0 0 .7 19.706 7.4824)">
       <path d="m0.187-0.231h-0.053q-0.016 0.065-0.016 0.104 0 0.079 0.046 0.106 0.017 0.01 0.041 0.01 0.09 0 0.162-0.06 0.021-0.017 0.038-0.039 7e-3 -0.01 0.013-0.01 9e-3 0 0.012 0.013 0 0.011-0.034 0.043-0.083 0.075-0.193 0.075-0.09 0-0.132-0.077-0.025-0.045-0.025-0.104 0-0.131 0.102-0.212 0.075-0.06 0.16-0.06 0.072 0 0.098 0.05 9e-3 0.016 9e-3 0.035 0 0.052-0.045 0.086l-1e-3 1e-3q-0.013 9e-3 -0.029 0.016-0.055 0.023-0.153 0.023m-0.047-0.022h0.041q0.201 0 0.201-0.104 0-0.04-0.039-0.057-0.014-5e-3 -0.035-6e-3 -0.056 0-0.103 0.046-0.045 0.044-0.065 0.121z" style="paint-order:stroke fill markers"/>
      </g>
      <g transform="matrix(.7 0 0 .7 20.032 7.4824)">
       <path d="m0.045 0.122 0.112-0.445q7e-3 -0.03 7e-3 -0.051 0-0.046-0.031-0.046-0.041 0-0.067 0.095-3e-3 0.011-6e-3 0.024-0.011 0.022-0.017 0.023-0.012 0-0.012-0.01 0-0.016 0.018-0.067 7e-3 -0.018 0.013-0.03 0.024-0.049 0.06-0.056 7e-3 -1e-3 0.014-1e-3 0.054 0 0.079 0.044v1e-3q8e-3 0.013 0.011 0.03 0.063-0.075 0.131-0.075 0.071 0 0.109 0.064 0.022 0.045 0.024 0.096 0 0.108-0.076 0.2-0.069 0.084-0.151 0.092-7e-3 1e-3 -0.014 1e-3 -0.063 0-0.092-0.064-0.037 0.132-0.048 0.194-1e-3 5e-3 -1e-3 6e-3 0 0.011 0.013 0.014h1e-3q0.012 2e-3 0.036 2e-3 0.022 0 0.024 0.011 0 0.02-0.018 0.02l-0.098-3e-3h-1e-3l-0.082 3e-3h-2e-3q-0.013 0-0.013-0.012 6e-3 -0.018 0.023-0.019 0.037 0 0.045-0.013l1e-3 -1e-3q2e-3 -4e-3 4e-3 -0.011 1e-3 -5e-3 4e-3 -0.016m0.176-0.434-0.049 0.196q-3e-3 0.012-3e-3 0.016 0 0.023 0.018 0.052 0.011 0.019 0.028 0.029 0.015 8e-3 0.033 8e-3 0.051 0 0.096-0.064 0.013-0.018 0.023-0.039 0.027-0.057 0.045-0.154 6e-3 -0.035 6e-3 -0.058 0-0.079-0.048-0.092-8e-3 -2e-3 -0.016-2e-3 -0.038 0-0.081 0.038-0.043 0.036-0.052 0.07z" style="paint-order:stroke fill markers"/>
      </g>
      <g transform="matrix(.7 0 0 .7 20.384 7.4824)">
       <path d="m0.661-0.23h-0.545q-0.032 0-0.033-0.02 0-0.02 0.033-0.02h0.545q0.032 0 0.033 0.02 0 0.02-0.033 0.02z" style="paint-order:stroke fill markers"/>
      </g>
      <g transform="matrix(.7 0 0 .7 20.928 7.4824)">
       <path d="m0.76-0.695-0.063 0.255q-5e-3 0.018-0.01 0.019l-1e-3 1e-3h-7e-3q-0.015 0-0.015-0.01l3e-3 -0.049v-2e-3q0-0.124-0.078-0.171l-1e-3 -1e-3q-0.035-0.021-0.082-0.021-0.107 0-0.203 0.081-0.027 0.022-0.047 0.048-0.096 0.118-0.113 0.29-2e-3 0.021-2e-3 0.036 0 0.137 0.104 0.188 0.044 0.022 0.097 0.022 0.085 0 0.141-0.043 0.04-0.03 0.052-0.078 0.021-0.078 0.021-0.091t-0.015-0.017q-5e-3 -1e-3 -0.016-2e-3 -0.023-2e-3 -0.053-2e-3 -0.027 0-0.029-6e-3 -1e-3 -1e-3 -1e-3 -5e-3 0-0.02 0.021-0.02l0.139 3e-3h1e-3l0.104-3e-3h1e-3q0.013 0 0.013 0.011 0 0.02-0.016 0.02-0.046 1e-3 -0.055 0.01-6e-3 7e-3 -0.014 0.038 0-2e-3 -0.01 0.039-2e-3 7e-3 -3e-3 0.012l-0.019 0.077q-0.014 0.058-0.017 0.061 0 4e-3 -7e-3 4e-3 -0.011 0-0.034-0.038-7e-3 -0.013-0.011-0.024-0.034 0.038-0.077 0.057l-0.01 4e-3q-0.058 0.024-0.125 0.024-0.135 0-0.212-0.094-0.061-0.074-0.061-0.18 0-0.149 0.109-0.279 0.101-0.121 0.239-0.16 0.051-0.014 0.1-0.014 0.109 0 0.166 0.089l0.07-0.077q0.012-0.012 0.015-0.012 0.011 0 0.011 0.01z" style="paint-order:stroke fill markers"/>
      </g>
      <g transform="matrix(.7 0 0 .7 21.479 7.4824)">
       <path d="m0.661-0.23h-0.545q-0.032 0-0.033-0.02 0-0.02 0.033-0.02h0.545q0.032 0 0.033 0.02 0 0.02-0.033 0.02z" style="paint-order:stroke fill markers"/>
      </g>
      <g transform="matrix(.7 0 0 .7 22.023 7.4824)">
       <path d="m0.179-0.115 0.348-0.584q0.01-0.016 0.026-0.017 0.015 0 0.017 0.01 1e-3 3e-3 2e-3 0.014l0.061 0.625q3e-3 0.025 0.012 0.03h1e-3v1e-3q0.012 5e-3 0.052 5e-3 0.022 0 0.023 0.011 0 0.02-0.018 0.02l-0.112-3e-3h-1e-3l-0.124 3e-3h-1e-3q-0.014 0-0.014-0.011 8e-3 -0.019 0.024-0.02 0.072 0 0.072-0.033 0 1e-3 -0.016-0.167h-0.251l-0.076 0.128q-0.014 0.025-0.014 0.037 0 0.031 0.047 0.035 0.016 0 0.016 0.012 0 0.019-0.019 0.019l-0.096-3e-3h-4e-3l-0.084 3e-3h-2e-3q-0.013 0-0.013-0.011 0-0.018 0.015-0.019v-1e-3h6e-3q0.063-4e-3 0.103-0.054 0.01-0.013 0.02-0.03m0.12-0.147h0.229l-0.032-0.33z" style="paint-order:stroke fill markers"/>
      </g>
      <rect x="18.343" y="7.7389" width="4.2183" height=".039999"/>
      <g transform="translate(18.343 8.6948)">
       <path d="m0.756-0.578-0.14 0.557q-5e-3 0.019-0.01 0.02l-1e-3 1e-3h-5e-3q-0.01 0-0.016-0.012-1e-3 -3e-3 -3e-3 -7e-3l-0.249-0.589-9e-3 -0.018-0.132 0.528q-4e-3 0.015-4e-3 0.023 0 0.034 0.043 0.042 0.01 2e-3 0.023 2e-3 0.02 0 0.02 0.011 0 0.02-0.018 0.02l-0.1-3e-3h-3e-3l-0.099 3e-3h-1e-3q-0.013 0-0.013-0.011 0-0.02 0.017-0.02 0.079-3e-3 0.1-0.05 4e-3 -0.01 8e-3 -0.025l0.134-0.537q0-9e-3 -0.068-9e-3 -0.026 0-0.028-0.011 0-0.018 0.015-0.02h0.148q0.021 0 0.026 7e-3 2e-3 3e-3 6e-3 0.012l0.221 0.522 0.112-0.445q3e-3 -9e-3 3e-3 -0.021 0-0.043-0.068-0.044-0.018 0-0.018-0.011 0-0.02 0.018-0.02l0.101 3e-3h1e-3l0.1-3e-3h1e-3q0.013 0 0.013 0.011 0 0.02-0.017 0.02-0.078 3e-3 -0.1 0.049-4e-3 0.01-8e-3 0.025z" style="paint-order:stroke fill markers"/>
      </g>
      <g transform="matrix(.7 0 0 .7 19.146 8.8448)">
       <path d="m0.303-0.316-0.062 0.25-3e-3 0.017q0 0.017 0.046 0.018h0.019q0.026 0 0.028 0.011 0 0.02-0.02 0.02l-0.064-2e-3h-1e-3l-0.062-1e-3h-2e-3l-0.126 3e-3h-1e-3q-0.015 0-0.015-0.012 0-0.017 0.016-0.019h0.012q0.065 0 0.078-0.014 6e-3 -7e-3 0.012-0.028 0-1e-3 1e-3 -5e-3l0.134-0.537q4e-3 -0.016 4e-3 -0.019 0-0.012-0.016-0.015h-1e-3q-2e-3 -1e-3 -5e-3 -1e-3 -0.024-2e-3 -0.043-2e-3 -0.026 0-0.028-8e-3 -1e-3 -2e-3 -1e-3 -4e-3 0-0.017 0.017-0.019h0.337q0.121 0 0.173 0.074 0.024 0.035 0.024 0.077 0 0.081-0.083 0.147-0.088 0.069-0.198 0.069h-0.17m0.072-0.298-0.068 0.272h0.141q0.095 0 0.154-0.053 0.041-0.038 0.056-0.127v-1e-3q3e-3 -0.019 3e-3 -0.033 0-0.096-0.136-0.096h-0.096q-0.036 0-0.044 0.01v1e-3h-1e-3v1e-3q-4e-3 6e-3 -9e-3 0.026z" style="paint-order:stroke fill markers"/>
      </g>
      <g transform="matrix(.7 0 0 .7 19.693 8.8448)">
       <path d="m0.187-0.231h-0.053q-0.016 0.065-0.016 0.104 0 0.079 0.046 0.106 0.017 0.01 0.041 0.01 0.09 0 0.162-0.06 0.021-0.017 0.038-0.039 7e-3 -0.01 0.013-0.01 9e-3 0 0.012 0.013 0 0.011-0.034 0.043-0.083 0.075-0.193 0.075-0.09 0-0.132-0.077-0.025-0.045-0.025-0.104 0-0.131 0.102-0.212 0.075-0.06 0.16-0.06 0.072 0 0.098 0.05 9e-3 0.016 9e-3 0.035 0 0.052-0.045 0.086l-1e-3 1e-3q-0.013 9e-3 -0.029 0.016-0.055 0.023-0.153 0.023m-0.047-0.022h0.041q0.201 0 0.201-0.104 0-0.04-0.039-0.057-0.014-5e-3 -0.035-6e-3 -0.056 0-0.103 0.046-0.045 0.044-0.065 0.121z" style="paint-order:stroke fill markers"/>
      </g>
      <g transform="matrix(.7 0 0 .7 20.019 8.8448)">
       <path d="m0.045 0.122 0.112-0.445q7e-3 -0.03 7e-3 -0.051 0-0.046-0.031-0.046-0.041 0-0.067 0.095-3e-3 0.011-6e-3 0.024-0.011 0.022-0.017 0.023-0.012 0-0.012-0.01 0-0.016 0.018-0.067 7e-3 -0.018 0.013-0.03 0.024-0.049 0.06-0.056 7e-3 -1e-3 0.014-1e-3 0.054 0 0.079 0.044v1e-3q8e-3 0.013 0.011 0.03 0.063-0.075 0.131-0.075 0.071 0 0.109 0.064 0.022 0.045 0.024 0.096 0 0.108-0.076 0.2-0.069 0.084-0.151 0.092-7e-3 1e-3 -0.014 1e-3 -0.063 0-0.092-0.064-0.037 0.132-0.048 0.194-1e-3 5e-3 -1e-3 6e-3 0 0.011 0.013 0.014h1e-3q0.012 2e-3 0.036 2e-3 0.022 0 0.024 0.011 0 0.02-0.018 0.02l-0.098-3e-3h-1e-3l-0.082 3e-3h-2e-3q-0.013 0-0.013-0.012 6e-3 -0.018 0.023-0.019 0.037 0 0.045-0.013l1e-3 -1e-3q2e-3 -4e-3 4e-3 -0.011 1e-3 -5e-3 4e-3 -0.016m0.176-0.434-0.049 0.196q-3e-3 0.012-3e-3 0.016 0 0.023 0.018 0.052 0.011 0.019 0.028 0.029 0.015 8e-3 0.033 8e-3 0.051 0 0.096-0.064 0.013-0.018 0.023-0.039 0.027-0.057 0.045-0.154 6e-3 -0.035 6e-3 -0.058 0-0.079-0.048-0.092-8e-3 -2e-3 -0.016-2e-3 -0.038 0-0.081 0.038-0.043 0.036-0.052 0.07z" style="paint-order:stroke fill markers"/>
      </g>
      <g transform="matrix(.7 0 0 .7 20.371 8.8448)">
       <path d="m0.661-0.23h-0.545q-0.032 0-0.033-0.02 0-0.02 0.033-0.02h0.545q0.032 0 0.033 0.02 0 0.02-0.033 0.02z" style="paint-order:stroke fill markers"/>
      </g>
      <g transform="matrix(.7 0 0 .7 20.915 8.8448)">
       <path d="m0.76-0.695-0.063 0.255q-5e-3 0.018-0.01 0.019l-1e-3 1e-3h-7e-3q-0.015 0-0.015-0.01l3e-3 -0.049v-2e-3q0-0.124-0.078-0.171l-1e-3 -1e-3q-0.035-0.021-0.082-0.021-0.107 0-0.203 0.081-0.027 0.022-0.047 0.048-0.096 0.118-0.113 0.29-2e-3 0.021-2e-3 0.036 0 0.137 0.104 0.188 0.044 0.022 0.097 0.022 0.085 0 0.141-0.043 0.04-0.03 0.052-0.078 0.021-0.078 0.021-0.091t-0.015-0.017q-5e-3 -1e-3 -0.016-2e-3 -0.023-2e-3 -0.053-2e-3 -0.027 0-0.029-6e-3 -1e-3 -1e-3 -1e-3 -5e-3 0-0.02 0.021-0.02l0.139 3e-3h1e-3l0.104-3e-3h1e-3q0.013 0 0.013 0.011 0 0.02-0.016 0.02-0.046 1e-3 -0.055 0.01-6e-3 7e-3 -0.014 0.038 0-2e-3 -0.01 0.039-2e-3 7e-3 -3e-3 0.012l-0.019 0.077q-0.014 0.058-0.017 0.061 0 4e-3 -7e-3 4e-3 -0.011 0-0.034-0.038-7e-3 -0.013-0.011-0.024-0.034 0.038-0.077 0.057l-0.01 4e-3q-0.058 0.024-0.125 0.024-0.135 0-0.212-0.094-0.061-0.074-0.061-0.18 0-0.149 0.109-0.279 0.101-0.121 0.239-0.16 0.051-0.014 0.1-0.014 0.109 0 0.166 0.089l0.07-0.077q0.012-0.012 0.015-0.012 0.011 0 0.011 0.01z" style="paint-order:stroke fill markers"/>
      </g>
      <g transform="matrix(.7 0 0 .7 21.466 8.8448)">
       <path d="m0.661-0.23h-0.545q-0.032 0-0.033-0.02 0-0.02 0.033-0.02h0.545q0.032 0 0.033 0.02 0 0.02-0.033 0.02z" style="paint-order:stroke fill markers"/>
      </g>
      <g transform="matrix(.7 0 0 .7 22.01 8.8448)">
       <path d="m0.76-0.695-0.063 0.255q-5e-3 0.018-0.01 0.019l-1e-3 1e-3h-7e-3q-0.015 0-0.015-0.01l3e-3 -0.049v-2e-3q0-0.124-0.078-0.171l-1e-3 -1e-3q-0.035-0.021-0.082-0.021-0.106 0-0.201 0.079-0.024 0.019-0.043 0.042-0.095 0.111-0.117 0.282-4e-3 0.031-4e-3 0.054 0 0.14 0.106 0.189 0.041 0.019 0.09 0.019 0.094 0 0.184-0.073 0.07-0.059 0.101-0.158 2e-3 -0.01 0.013-0.01 0.012 0 0.012 0.01 0 0.018-0.023 0.064-0.031 0.063-0.087 0.112-0.099 0.086-0.216 0.086-0.128 0-0.205-0.088-0.066-0.075-0.066-0.186 0-0.149 0.109-0.279 0.101-0.121 0.239-0.16 0.051-0.014 0.1-0.014 0.109 0 0.166 0.089l0.07-0.077q0.012-0.012 0.015-0.012 0.011 0 0.011 0.01z" style="paint-order:stroke fill markers"/>
      </g>
      <g transform="translate(22.595 6.5989)">
       <path d="m0.042969 2.3589q-0.0087891 0-0.0087891-0.00879 0-0.00391 0.0019531-0.00586 0.11426-0.11279 0.19287-0.25122 0.078613-0.13843 0.125-0.29102 0.046387-0.15259 0.066162-0.31201 0.019775-0.15942 0.019775-0.33081 0-0.17334-0.019775-0.33154-0.019775-0.1582-0.065674-0.31006-0.045898-0.15186-0.12549-0.29126-0.07959-0.1394-0.19287-0.25122-0.0019531-0.0019531-0.0019531-0.0058594 0-0.0092773 0.0087891-0.0092773h0.025879q0.003418 0 0.0053711 0.0019531 0.12354 0.10938 0.21143 0.24878 0.087891 0.1394 0.14062 0.29419 0.052734 0.15479 0.07666 0.31982t0.023926 0.33545q0 0.16943-0.023926 0.33398t-0.07666 0.31958-0.14062 0.29443-0.21143 0.24878q-0.0019531 0.00195-0.0053711 0.00195z" style="paint-order:stroke fill markers"/>
      </g>
      <g transform="matrix(.7 0 0 .7 23.215 6.8292)">
       <path d="m0.917-0.567-0.328 0.57q-0.011 0.019-0.024 0.019-0.012 0-0.014-0.012-1e-3 -5e-3 -2e-3 -0.014l-0.037-0.505-0.294 0.51q-0.011 0.019-0.019 0.02l-1e-3 1e-3h-4e-3q-0.013 0-0.015-0.015-1e-3 -4e-3 -1e-3 -0.011l-0.045-0.611q-2e-3 -0.026-0.012-0.032h-2e-3q-0.01-5e-3 -0.039-5e-3 -0.023 0-0.025-0.012 0-0.019 0.018-0.019l0.104 3e-3h1e-3l0.121-3e-3h2e-3q0.014 0 0.014 0.011-4e-3 0.019-0.021 0.02-0.075 1e-3 -0.076 0.036l0.038 0.507 0.253-0.441-6e-3 -0.077q-2e-3 -0.019-0.02-0.023-0.011-2e-3 -0.033-2e-3t-0.024-0.011q0-0.02 0.019-0.02l0.104 3e-3h1e-3l0.116-3e-3h6e-3q0.015 0 0.015 0.011 0 0.018-0.015 0.02h-0.012q-0.068 1e-3 -0.07 0.035v0.012l0.037 0.496 0.27-0.471q0.013-0.023 0.013-0.033 0-0.036-0.059-0.039-0.015 0-0.015-0.012 0-0.019 0.019-0.019l0.103 3e-3h1e-3l0.075-3e-3h2e-3q0.01 0 0.012 0.011 0 0.018-0.015 0.02h-4e-3q-0.06 5e-3 -0.095 0.057l-1e-3 1e-3v1e-3q-7e-3 0.01-0.016 0.026z" style="paint-order:stroke fill markers"/>
      </g>
      <g transform="matrix(.5 0 0 .5 23.875 6.9342)">
       <path d="m0.303-0.316-0.062 0.25-3e-3 0.017q0 0.017 0.046 0.018h0.019q0.026 0 0.028 0.011 0 0.02-0.02 0.02l-0.064-2e-3h-1e-3l-0.062-1e-3h-2e-3l-0.126 3e-3h-1e-3q-0.015 0-0.015-0.012 0-0.017 0.016-0.019h0.012q0.065 0 0.078-0.014 6e-3 -7e-3 0.012-0.028 0-1e-3 1e-3 -5e-3l0.134-0.537q4e-3 -0.016 4e-3 -0.019 0-0.012-0.016-0.015h-1e-3q-2e-3 -1e-3 -5e-3 -1e-3 -0.024-2e-3 -0.043-2e-3 -0.026 0-0.028-8e-3 -1e-3 -2e-3 -1e-3 -4e-3 0-0.017 0.017-0.019h0.337q0.121 0 0.173 0.074 0.024 0.035 0.024 0.077 0 0.081-0.083 0.147-0.088 0.069-0.198 0.069h-0.17m0.072-0.298-0.068 0.272h0.141q0.095 0 0.154-0.053 0.041-0.038 0.056-0.127v-1e-3q3e-3 -0.019 3e-3 -0.033 0-0.096-0.136-0.096h-0.096q-0.036 0-0.044 0.01v1e-3h-1e-3v1e-3q-4e-3 6e-3 -9e-3 0.026z" style="paint-order:stroke fill markers"/>
      </g>
      <g transform="matrix(.5 0 0 .5 24.266 6.9342)">
       <path d="m0.187-0.231h-0.053q-0.016 0.065-0.016 0.104 0 0.079 0.046 0.106 0.017 0.01 0.041 0.01 0.09 0 0.162-0.06 0.021-0.017 0.038-0.039 7e-3 -0.01 0.013-0.01 9e-3 0 0.012 0.013 0 0.011-0.034 0.043-0.083 0.075-0.193 0.075-0.09 0-0.132-0.077-0.025-0.045-0.025-0.104 0-0.131 0.102-0.212 0.075-0.06 0.16-0.06 0.072 0 0.098 0.05 9e-3 0.016 9e-3 0.035 0 0.052-0.045 0.086l-1e-3 1e-3q-0.013 9e-3 -0.029 0.016-0.055 0.023-0.153 0.023m-0.047-0.022h0.041q0.201 0 0.201-0.104 0-0.04-0.039-0.057-0.014-5e-3 -0.035-6e-3 -0.056 0-0.103 0.046-0.045 0.044-0.065 0.121z" style="paint-order:stroke fill markers"/>
      </g>
      <g transform="matrix(.5 0 0 .5 24.499 6.9342)">
       <path d="m0.045 0.122 0.112-0.445q7e-3 -0.03 7e-3 -0.051 0-0.046-0.031-0.046-0.041 0-0.067 0.095-3e-3 0.011-6e-3 0.024-0.011 0.022-0.017 0.023-0.012 0-0.012-0.01 0-0.016 0.018-0.067 7e-3 -0.018 0.013-0.03 0.024-0.049 0.06-0.056 7e-3 -1e-3 0.014-1e-3 0.054 0 0.079 0.044v1e-3q8e-3 0.013 0.011 0.03 0.063-0.075 0.131-0.075 0.071 0 0.109 0.064 0.022 0.045 0.024 0.096 0 0.108-0.076 0.2-0.069 0.084-0.151 0.092-7e-3 1e-3 -0.014 1e-3 -0.063 0-0.092-0.064-0.037 0.132-0.048 0.194-1e-3 5e-3 -1e-3 6e-3 0 0.011 0.013 0.014h1e-3q0.012 2e-3 0.036 2e-3 0.022 0 0.024 0.011 0 0.02-0.018 0.02l-0.098-3e-3h-1e-3l-0.082 3e-3h-2e-3q-0.013 0-0.013-0.012 6e-3 -0.018 0.023-0.019 0.037 0 0.045-0.013l1e-3 -1e-3q2e-3 -4e-3 4e-3 -0.011 1e-3 -5e-3 4e-3 -0.016m0.176-0.434-0.049 0.196q-3e-3 0.012-3e-3 0.016 0 0.023 0.018 0.052 0.011 0.019 0.028 0.029 0.015 8e-3 0.033 8e-3 0.051 0 0.096-0.064 0.013-0.018 0.023-0.039 0.027-0.057 0.045-0.154 6e-3 -0.035 6e-3 -0.058 0-0.079-0.048-0.092-8e-3 -2e-3 -0.016-2e-3 -0.038 0-0.081 0.038-0.043 0.036-0.052 0.07z" style="paint-order:stroke fill markers"/>
      </g>
      <g transform="translate(24.931 8.0089)">
       <path d="m0.261-0.229 0.014 0.158q3e-3 0.037-0.026 0.037-0.018 0-0.024-0.016-2e-3 -5e-3 -1e-3 -0.011v-5e-3l0.014-0.164-0.126 0.093q-0.012 9e-3 -0.02 9e-3 -0.018 0-0.025-0.018-2e-3 -5e-3 -2e-3 -0.01 0-0.017 0.021-0.026l0.141-0.068-0.141-0.067q-0.021-9e-3 -0.021-0.026 0-0.019 0.019-0.026 4e-3 -2e-3 8e-3 -2e-3 6e-3 0 0.02 0.01l0.126 0.092-0.014-0.159v-0.011q-4e-3 -0.016 0.014-0.023l1e-3 -1e-3h1e-3q5e-3 -2e-3 0.01-2e-3 0.028 0 0.025 0.036l-0.014 0.16 0.126-0.093q0.012-9e-3 0.02-9e-3 0.018 0 0.025 0.018 2e-3 5e-3 2e-3 0.01 0 0.017-0.021 0.026l-0.142 0.068 0.145 0.068q0.018 9e-3 0.018 0.025 0 0.019-0.019 0.026-4e-3 2e-3 -8e-3 2e-3 -8e-3 0-0.037-0.022z" style="paint-order:stroke fill markers"/>
      </g>
      <g transform="translate(25.654 6.5989)">
       <path d="m0.66211 2.3569q-0.12305-0.10889-0.21094-0.24805-0.087891-0.13916-0.14111-0.29395-0.053223-0.15479-0.077637-0.32007-0.024414-0.16528-0.024414-0.33472 0-0.17041 0.024414-0.33618 0.024414-0.16577 0.077393-0.32007t0.14111-0.2937q0.088135-0.1394 0.21118-0.24829 0-0.0019531 0.004883-0.0019531h0.025879q0.00293 0 0.005615 0.0029297 0.002686 0.0029297 0.002686 0.0063477 0 0.0039063-0.001953 0.0058594-0.11426 0.11279-0.19312 0.25098-0.078857 0.13818-0.12524 0.29102-0.046387 0.15283-0.066162 0.31396-0.019775 0.16113-0.019775 0.3291 0 0.16748 0.019531 0.32642 0.019531 0.15894 0.066406 0.31372 0.046875 0.15479 0.12598 0.29297 0.079102 0.13818 0.19238 0.25098 0.001953 0.00195 0.001953 0.00586 0 0.00293-0.00293 0.00586t-0.005371 0.00293h-0.025879q-0.004883 0-0.004883-0.00195z" style="paint-order:stroke fill markers"/>
      </g>
      <g transform="translate(26.437 7.3324)">
       <path d="m0.76-0.695-0.063 0.255q-5e-3 0.018-0.01 0.019l-1e-3 1e-3h-7e-3q-0.015 0-0.015-0.01l3e-3 -0.049v-2e-3q0-0.124-0.078-0.171l-1e-3 -1e-3q-0.035-0.021-0.082-0.021-0.106 0-0.201 0.079-0.024 0.019-0.043 0.042-0.095 0.111-0.117 0.282-4e-3 0.031-4e-3 0.054 0 0.14 0.106 0.189 0.041 0.019 0.09 0.019 0.094 0 0.184-0.073 0.07-0.059 0.101-0.158 2e-3 -0.01 0.013-0.01 0.012 0 0.012 0.01 0 0.018-0.023 0.064-0.031 0.063-0.087 0.112-0.099 0.086-0.216 0.086-0.128 0-0.205-0.088-0.066-0.075-0.066-0.186 0-0.149 0.109-0.279 0.101-0.121 0.239-0.16 0.051-0.014 0.1-0.014 0.109 0 0.166 0.089l0.07-0.077q0.012-0.012 0.015-0.012 0.011 0 0.011 0.01z" style="paint-order:stroke fill markers"/>
      </g>
      <g transform="translate(27.224 7.3324)">
       <path d="m0.74-0.436q0 0.155-0.11 0.287-0.099 0.12-0.232 0.158-0.047 0.013-0.093 0.013-0.125 0-0.197-0.088-0.059-0.072-0.059-0.179 0-0.15 0.107-0.284 0.099-0.121 0.232-0.161 0.049-0.015 0.097-0.015 0.127 0 0.199 0.092 0.056 0.072 0.056 0.177m-0.429 0.432q0.094 0 0.181-0.084 0.018-0.017 0.033-0.036 0.098-0.122 0.121-0.291 5e-3 -0.033 5e-3 -0.06 0-0.137-0.092-0.186-1e-3 0-2e-3 -1e-3 -0.036-0.018-0.078-0.018-0.094 0-0.182 0.081-0.036 0.032-0.064 0.075-0.076 0.115-0.089 0.275-2e-3 0.018-2e-3 0.032 0 0.128 0.077 0.184 0.04 0.029 0.092 0.029z" style="paint-order:stroke fill markers"/>
      </g>
      <g transform="translate(28.015 7.3324)">
       <path d="m0.628-0.569-0.36 0.573q-0.016 0.017-0.028 0.018-0.014 0-0.018-0.012-1e-3 -4e-3 -2e-3 -0.011l-0.079-0.617q-3e-3 -0.023-0.014-0.028-0.011-6e-3 -0.046-6e-3 -0.023 0-0.025-0.012 0-0.019 0.019-0.019l0.053 2e-3h1e-3l0.053 1e-3h2e-3l0.123-3e-3h1e-3q0.014 0 0.014 0.011-8e-3 0.019-0.025 0.02-0.064 0-0.069 0.03l0.068 0.529 0.307-0.488 0.013-0.028q2e-3 -6e-3 2e-3 -0.01 0-0.03-0.046-0.033-0.016 0-0.016-0.012 0-0.019 0.019-0.019l0.098 3e-3h1e-3l0.08-3e-3h2e-3q0.013 0 0.013 0.012 0 0.018-0.013 0.019-0.052 3e-3 -0.082 0.028-0.011 9e-3 -0.022 0.022-0.012 0.014-0.024 0.033z" style="paint-order:stroke fill markers"/>
      </g>
      <g transform="matrix(.7 0 0 .7 28.598 7.4824)">
       <path d="m0.76-0.695-0.063 0.255q-5e-3 0.018-0.01 0.019l-1e-3 1e-3h-7e-3q-0.015 0-0.015-0.01l3e-3 -0.049v-2e-3q0-0.124-0.078-0.171l-1e-3 -1e-3q-0.035-0.021-0.082-0.021-0.107 0-0.203 0.081-0.027 0.022-0.047 0.048-0.096 0.118-0.113 0.29-2e-3 0.021-2e-3 0.036 0 0.137 0.104 0.188 0.044 0.022 0.097 0.022 0.085 0 0.141-0.043 0.04-0.03 0.052-0.078 0.021-0.078 0.021-0.091t-0.015-0.017q-5e-3 -1e-3 -0.016-2e-3 -0.023-2e-3 -0.053-2e-3 -0.027 0-0.029-6e-3 -1e-3 -1e-3 -1e-3 -5e-3 0-0.02 0.021-0.02l0.139 3e-3h1e-3l0.104-3e-3h1e-3q0.013 0 0.013 0.011 0 0.02-0.016 0.02-0.046 1e-3 -0.055 0.01-6e-3 7e-3 -0.014 0.038 0-2e-3 -0.01 0.039-2e-3 7e-3 -3e-3 0.012l-0.019 0.077q-0.014 0.058-0.017 0.061 0 4e-3 -7e-3 4e-3 -0.011 0-0.034-0.038-7e-3 -0.013-0.011-0.024-0.034 0.038-0.077 0.057l-0.01 4e-3q-0.058 0.024-0.125 0.024-0.135 0-0.212-0.094-0.061-0.074-0.061-0.18 0-0.149 0.109-0.279 0.101-0.121 0.239-0.16 0.051-0.014 0.1-0.014 0.109 0 0.166 0.089l0.07-0.077q0.012-0.012 0.015-0.012 0.011 0 0.011 0.01z" style="paint-order:stroke fill markers"/>
      </g>
      <g transform="matrix(.7 0 0 .7 29.148 7.4824)">
       <path d="m0.661-0.23h-0.545q-0.032 0-0.033-0.02 0-0.02 0.033-0.02h0.545q0.032 0 0.033 0.02 0 0.02-0.033 0.02z" style="paint-order:stroke fill markers"/>
      </g>
      <g transform="matrix(.7 0 0 .7 29.692 7.4824)">
       <path d="m0.179-0.115 0.348-0.584q0.01-0.016 0.026-0.017 0.015 0 0.017 0.01 1e-3 3e-3 2e-3 0.014l0.061 0.625q3e-3 0.025 0.012 0.03h1e-3v1e-3q0.012 5e-3 0.052 5e-3 0.022 0 0.023 0.011 0 0.02-0.018 0.02l-0.112-3e-3h-1e-3l-0.124 3e-3h-1e-3q-0.014 0-0.014-0.011 8e-3 -0.019 0.024-0.02 0.072 0 0.072-0.033 0 1e-3 -0.016-0.167h-0.251l-0.076 0.128q-0.014 0.025-0.014 0.037 0 0.031 0.047 0.035 0.016 0 0.016 0.012 0 0.019-0.019 0.019l-0.096-3e-3h-4e-3l-0.084 3e-3h-2e-3q-0.013 0-0.013-0.011 0-0.018 0.015-0.019v-1e-3h6e-3q0.063-4e-3 0.103-0.054 0.01-0.013 0.02-0.03m0.12-0.147h0.229l-0.032-0.33z" style="paint-order:stroke fill markers"/>
      </g>
      <rect x="26.424" y="7.7389" width="3.8067" height=".039999"/>
      <g transform="translate(26.424 8.6948)">
       <path d="m0.76-0.695-0.063 0.255q-5e-3 0.018-0.01 0.019l-1e-3 1e-3h-7e-3q-0.015 0-0.015-0.01l3e-3 -0.049v-2e-3q0-0.124-0.078-0.171l-1e-3 -1e-3q-0.035-0.021-0.082-0.021-0.106 0-0.201 0.079-0.024 0.019-0.043 0.042-0.095 0.111-0.117 0.282-4e-3 0.031-4e-3 0.054 0 0.14 0.106 0.189 0.041 0.019 0.09 0.019 0.094 0 0.184-0.073 0.07-0.059 0.101-0.158 2e-3 -0.01 0.013-0.01 0.012 0 0.012 0.01 0 0.018-0.023 0.064-0.031 0.063-0.087 0.112-0.099 0.086-0.216 0.086-0.128 0-0.205-0.088-0.066-0.075-0.066-0.186 0-0.149 0.109-0.279 0.101-0.121 0.239-0.16 0.051-0.014 0.1-0.014 0.109 0 0.166 0.089l0.07-0.077q0.012-0.012 0.015-0.012 0.011 0 0.011 0.01z" style="paint-order:stroke fill markers"/>
      </g>
      <g transform="translate(27.211 8.6948)">
       <path d="m0.74-0.436q0 0.155-0.11 0.287-0.099 0.12-0.232 0.158-0.047 0.013-0.093 0.013-0.125 0-0.197-0.088-0.059-0.072-0.059-0.179 0-0.15 0.107-0.284 0.099-0.121 0.232-0.161 0.049-0.015 0.097-0.015 0.127 0 0.199 0.092 0.056 0.072 0.056 0.177m-0.429 0.432q0.094 0 0.181-0.084 0.018-0.017 0.033-0.036 0.098-0.122 0.121-0.291 5e-3 -0.033 5e-3 -0.06 0-0.137-0.092-0.186-1e-3 0-2e-3 -1e-3 -0.036-0.018-0.078-0.018-0.094 0-0.182 0.081-0.036 0.032-0.064 0.075-0.076 0.115-0.089 0.275-2e-3 0.018-2e-3 0.032 0 0.128 0.077 0.184 0.04 0.029 0.092 0.029z" style="paint-order:stroke fill markers"/>
      </g>
      <g transform="translate(28.002 8.6948)">
       <path d="m0.628-0.569-0.36 0.573q-0.016 0.017-0.028 0.018-0.014 0-0.018-0.012-1e-3 -4e-3 -2e-3 -0.011l-0.079-0.617q-3e-3 -0.023-0.014-0.028-0.011-6e-3 -0.046-6e-3 -0.023 0-0.025-0.012 0-0.019 0.019-0.019l0.053 2e-3h1e-3l0.053 1e-3h2e-3l0.123-3e-3h1e-3q0.014 0 0.014 0.011-8e-3 0.019-0.025 0.02-0.064 0-0.069 0.03l0.068 0.529 0.307-0.488 0.013-0.028q2e-3 -6e-3 2e-3 -0.01 0-0.03-0.046-0.033-0.016 0-0.016-0.012 0-0.019 0.019-0.019l0.098 3e-3h1e-3l0.08-3e-3h2e-3q0.013 0 0.013 0.012 0 0.018-0.013 0.019-0.052 3e-3 -0.082 0.028-0.011 9e-3 -0.022 0.022-0.012 0.014-0.024 0.033z" style="paint-order:stroke fill markers"/>
      </g>
      <g transform="matrix(.7 0 0 .7 28.585 8.8448)">
       <path d="m0.76-0.695-0.063 0.255q-5e-3 0.018-0.01 0.019l-1e-3 1e-3h-7e-3q-0.015 0-0.015-0.01l3e-3 -0.049v-2e-3q0-0.124-0.078-0.171l-1e-3 -1e-3q-0.035-0.021-0.082-0.021-0.107 0-0.203 0.081-0.027 0.022-0.047 0.048-0.096 0.118-0.113 0.29-2e-3 0.021-2e-3 0.036 0 0.137 0.104 0.188 0.044 0.022 0.097 0.022 0.085 0 0.141-0.043 0.04-0.03 0.052-0.078 0.021-0.078 0.021-0.091t-0.015-0.017q-5e-3 -1e-3 -0.016-2e-3 -0.023-2e-3 -0.053-2e-3 -0.027 0-0.029-6e-3 -1e-3 -1e-3 -1e-3 -5e-3 0-0.02 0.021-0.02l0.139 3e-3h1e-3l0.104-3e-3h1e-3q0.013 0 0.013 0.011 0 0.02-0.016 0.02-0.046 1e-3 -0.055 0.01-6e-3 7e-3 -0.014 0.038 0-2e-3 -0.01 0.039-2e-3 7e-3 -3e-3 0.012l-0.019 0.077q-0.014 0.058-0.017 0.061 0 4e-3 -7e-3 4e-3 -0.011 0-0.034-0.038-7e-3 -0.013-0.011-0.024-0.034 0.038-0.077 0.057l-0.01 4e-3q-0.058 0.024-0.125 0.024-0.135 0-0.212-0.094-0.061-0.074-0.061-0.18 0-0.149 0.109-0.279 0.101-0.121 0.239-0.16 0.051-0.014 0.1-0.014 0.109 0 0.166 0.089l0.07-0.077q0.012-0.012 0.015-0.012 0.011 0 0.011 0.01z" style="paint-order:stroke fill markers"/>
      </g>
      <g transform="matrix(.7 0 0 .7 29.135 8.8448)">
       <path d="m0.661-0.23h-0.545q-0.032 0-0.033-0.02 0-0.02 0.033-0.02h0.545q0.032 0 0.033 0.02 0 0.02-0.033 0.02z" style="paint-order:stroke fill markers"/>
      </g>
      <g transform="matrix(.7 0 0 .7 29.68 8.8448)">
       <path d="m0.76-0.695-0.063 0.255q-5e-3 0.018-0.01 0.019l-1e-3 1e-3h-7e-3q-0.015 0-0.015-0.01l3e-3 -0.049v-2e-3q0-0.124-0.078-0.171l-1e-3 -1e-3q-0.035-0.021-0.082-0.021-0.106 0-0.201 0.079-0.024 0.019-0.043 0.042-0.095 0.111-0.117 0.282-4e-3 0.031-4e-3 0.054 0 0.14 0.106 0.189 0.041 0.019 0.09 0.019 0.094 0 0.184-0.073 0.07-0.059 0.101-0.158 2e-3 -0.01 0.013-0.01 0.012 0 0.012 0.01 0 0.018-0.023 0.064-0.031 0.063-0.087 0.112-0.099 0.086-0.216 0.086-0.128 0-0.205-0.088-0.066-0.075-0.066-0.186 0-0.149 0.109-0.279 0.101-0.121 0.239-0.16 0.051-0.014 0.1-0.014 0.109 0 0.166 0.089l0.07-0.077q0.012-0.012 0.015-0.012 0.011 0 0.011 0.01z" style="paint-order:stroke fill markers"/>
      </g>
      <g transform="translate(30.265 6.5989)">
       <path d="m0.042969 2.3589q-0.0087891 0-0.0087891-0.00879 0-0.00391 0.0019531-0.00586 0.11426-0.11279 0.19287-0.25122 0.078613-0.13843 0.125-0.29102 0.046387-0.15259 0.066162-0.31201 0.019775-0.15942 0.019775-0.33081 0-0.17334-0.019775-0.33154-0.019775-0.1582-0.065674-0.31006-0.045898-0.15186-0.12549-0.29126-0.07959-0.1394-0.19287-0.25122-0.0019531-0.0019531-0.0019531-0.0058594 0-0.0092773 0.0087891-0.0092773h0.025879q0.003418 0 0.0053711 0.0019531 0.12354 0.10938 0.21143 0.24878 0.087891 0.1394 0.14062 0.29419 0.052734 0.15479 0.07666 0.31982t0.023926 0.33545q0 0.16943-0.023926 0.33398t-0.07666 0.31958-0.14062 0.29443-0.21143 0.24878q-0.0019531 0.00195-0.0053711 0.00195z" style="paint-order:stroke fill markers"/>
      </g>
      <g transform="matrix(.7 0 0 .7 30.884 6.8292)">
       <path d="m0.917-0.567-0.328 0.57q-0.011 0.019-0.024 0.019-0.012 0-0.014-0.012-1e-3 -5e-3 -2e-3 -0.014l-0.037-0.505-0.294 0.51q-0.011 0.019-0.019 0.02l-1e-3 1e-3h-4e-3q-0.013 0-0.015-0.015-1e-3 -4e-3 -1e-3 -0.011l-0.045-0.611q-2e-3 -0.026-0.012-0.032h-2e-3q-0.01-5e-3 -0.039-5e-3 -0.023 0-0.025-0.012 0-0.019 0.018-0.019l0.104 3e-3h1e-3l0.121-3e-3h2e-3q0.014 0 0.014 0.011-4e-3 0.019-0.021 0.02-0.075 1e-3 -0.076 0.036l0.038 0.507 0.253-0.441-6e-3 -0.077q-2e-3 -0.019-0.02-0.023-0.011-2e-3 -0.033-2e-3t-0.024-0.011q0-0.02 0.019-0.02l0.104 3e-3h1e-3l0.116-3e-3h6e-3q0.015 0 0.015 0.011 0 0.018-0.015 0.02h-0.012q-0.068 1e-3 -0.07 0.035v0.012l0.037 0.496 0.27-0.471q0.013-0.023 0.013-0.033 0-0.036-0.059-0.039-0.015 0-0.015-0.012 0-0.019 0.019-0.019l0.103 3e-3h1e-3l0.075-3e-3h2e-3q0.01 0 0.012 0.011 0 0.018-0.015 0.02h-4e-3q-0.06 5e-3 -0.095 0.057l-1e-3 1e-3v1e-3q-7e-3 0.01-0.016 0.026z" style="paint-order:stroke fill markers"/>
      </g>
      <g transform="matrix(.5 0 0 .5 31.545 6.9342)">
       <path d="m0.76-0.695-0.063 0.255q-5e-3 0.018-0.01 0.019l-1e-3 1e-3h-7e-3q-0.015 0-0.015-0.01l3e-3 -0.049v-2e-3q0-0.124-0.078-0.171l-1e-3 -1e-3q-0.035-0.021-0.082-0.021-0.106 0-0.201 0.079-0.024 0.019-0.043 0.042-0.095 0.111-0.117 0.282-4e-3 0.031-4e-3 0.054 0 0.14 0.106 0.189 0.041 0.019 0.09 0.019 0.094 0 0.184-0.073 0.07-0.059 0.101-0.158 2e-3 -0.01 0.013-0.01 0.012 0 0.012 0.01 0 0.018-0.023 0.064-0.031 0.063-0.087 0.112-0.099 0.086-0.216 0.086-0.128 0-0.205-0.088-0.066-0.075-0.066-0.186 0-0.149 0.109-0.279 0.101-0.121 0.239-0.16 0.051-0.014 0.1-0.014 0.109 0 0.166 0.089l0.07-0.077q0.012-0.012 0.015-0.012 0.011 0 0.011 0.01z" style="paint-order:stroke fill markers"/>
      </g>
      <g transform="matrix(.5 0 0 .5 31.938 6.9342)">
       <path d="m0.74-0.436q0 0.155-0.11 0.287-0.099 0.12-0.232 0.158-0.047 0.013-0.093 0.013-0.125 0-0.197-0.088-0.059-0.072-0.059-0.179 0-0.15 0.107-0.284 0.099-0.121 0.232-0.161 0.049-0.015 0.097-0.015 0.127 0 0.199 0.092 0.056 0.072 0.056 0.177m-0.429 0.432q0.094 0 0.181-0.084 0.018-0.017 0.033-0.036 0.098-0.122 0.121-0.291 5e-3 -0.033 5e-3 -0.06 0-0.137-0.092-0.186-1e-3 0-2e-3 -1e-3 -0.036-0.018-0.078-0.018-0.094 0-0.182 0.081-0.036 0.032-0.064 0.075-0.076 0.115-0.089 0.275-2e-3 0.018-2e-3 0.032 0 0.128 0.077 0.184 0.04 0.029 0.092 0.029z" style="paint-order:stroke fill markers"/>
      </g>
      <g transform="matrix(.5 0 0 .5 32.334 6.9342)">
       <path d="m0.628-0.569-0.36 0.573q-0.016 0.017-0.028 0.018-0.014 0-0.018-0.012-1e-3 -4e-3 -2e-3 -0.011l-0.079-0.617q-3e-3 -0.023-0.014-0.028-0.011-6e-3 -0.046-6e-3 -0.023 0-0.025-0.012 0-0.019 0.019-0.019l0.053 2e-3h1e-3l0.053 1e-3h2e-3l0.123-3e-3h1e-3q0.014 0 0.014 0.011-8e-3 0.019-0.025 0.02-0.064 0-0.069 0.03l0.068 0.529 0.307-0.488 0.013-0.028q2e-3 -6e-3 2e-3 -0.01 0-0.03-0.046-0.033-0.016 0-0.016-0.012 0-0.019 0.019-0.019l0.098 3e-3h1e-3l0.08-3e-3h2e-3q0.013 0 0.013 0.012 0 0.018-0.013 0.019-0.052 3e-3 -0.082 0.028-0.011 9e-3 -0.022 0.022-0.012 0.014-0.024 0.033z" style="paint-order:stroke fill markers"/>
      </g>
     </g>
    </g>
   </g>
  </g>
 </g>
 <rect x="-40.509" y="-39.268" width="1229" height="216.05" fill-opacity="0" style="paint-order:normal"/>
</svg>
