<?xml version="1.0" encoding="UTF-8" standalone="no"?>
<svg
   xmlns:dc="http://purl.org/dc/elements/1.1/"
   xmlns:cc="http://creativecommons.org/ns#"
   xmlns:rdf="http://www.w3.org/1999/02/22-rdf-syntax-ns#"
   xmlns:svg="http://www.w3.org/2000/svg"
   xmlns="http://www.w3.org/2000/svg"
   xmlns:xlink="http://www.w3.org/1999/xlink"
   xmlns:sodipodi="http://sodipodi.sourceforge.net/DTD/sodipodi-0.dtd"
   xmlns:inkscape="http://www.inkscape.org/namespaces/inkscape"
   id="Layer_1"
   data-name="Layer 1"
   viewBox="0 0 186.83 190.91"
   version="1.1"
   sodipodi:docname="CoMPaseD_logo.svg"
   inkscape:version="0.92.4 (5da689c313, 2019-01-14)">
  <metadata
     id="metadata53">
    <rdf:RDF>
      <cc:Work
         rdf:about="">
        <dc:format>image/svg+xml</dc:format>
        <dc:type
           rdf:resource="http://purl.org/dc/dcmitype/StillImage" />
        <dc:title></dc:title>
      </cc:Work>
    </rdf:RDF>
  </metadata>
  <sodipodi:namedview
     pagecolor="#ffffff"
     bordercolor="#666666"
     borderopacity="1"
     objecttolerance="10"
     gridtolerance="10"
     guidetolerance="10"
     inkscape:pageopacity="0"
     inkscape:pageshadow="2"
     inkscape:window-width="1680"
     inkscape:window-height="987"
     id="namedview51"
     showgrid="false"
     showborder="false"
     inkscape:zoom="1.2361846"
     inkscape:cx="93.415001"
     inkscape:cy="95.455002"
     inkscape:window-x="-8"
     inkscape:window-y="-8"
     inkscape:window-maximized="1"
     inkscape:current-layer="Layer_1" />
  <defs
     id="defs22">
    <style
       id="style2">.cls-1{fill:url(#Degradado_sin_nombre_2);}.cls-2{fill:url(#Degradado_sin_nombre_19);}.cls-3{fill:url(#Degradado_sin_nombre_19-2);}.cls-4{fill:url(#Degradado_sin_nombre_19-3);}.cls-5{fill:url(#Degradado_sin_nombre_19-4);}.cls-6{fill:url(#Degradado_sin_nombre_20);}.cls-7{fill:url(#Degradado_sin_nombre_20-2);}.cls-8{fill:url(#Degradado_sin_nombre_19-5);}.cls-9{fill:url(#Degradado_sin_nombre_19-6);}.cls-10{font-size:19.77px;font-family:Roboto-Thin, Roboto;font-weight:200;}.cls-11{letter-spacing:-0.01em;}.cls-12{fill:url(#Degradado_sin_nombre_19-7);}</style>
    <linearGradient
       id="Degradado_sin_nombre_2"
       x1="-54.99"
       y1="-73.92"
       x2="234.34"
       y2="252.32"
       gradientUnits="userSpaceOnUse">
      <stop
         offset="0"
         stop-color="#e9e3f0"
         id="stop4" />
      <stop
         offset="1"
         stop-color="#d2cbe2"
         id="stop6" />
    </linearGradient>
    <linearGradient
       id="Degradado_sin_nombre_19"
       x1="89.29"
       y1="85.3"
       x2="126.22"
       y2="128.55"
       gradientUnits="userSpaceOnUse">
      <stop
         offset="0"
         stop-color="#f2cc8d"
         id="stop9" />
      <stop
         offset="1"
         stop-color="#662740"
         id="stop11" />
    </linearGradient>
    <linearGradient
       id="Degradado_sin_nombre_19-2"
       x1="150.01"
       y1="38.71"
       x2="104.5"
       y2="44.47"
       xlink:href="#Degradado_sin_nombre_19" />
    <linearGradient
       id="Degradado_sin_nombre_19-3"
       x1="151.58"
       y1="32.21"
       x2="104.96"
       y2="38.12"
       xlink:href="#Degradado_sin_nombre_19" />
    <linearGradient
       id="Degradado_sin_nombre_19-4"
       x1="90.11"
       y1="148.45"
       x2="76.56"
       y2="-17.79"
       xlink:href="#Degradado_sin_nombre_19" />
    <linearGradient
       id="Degradado_sin_nombre_20"
       x1="69.73"
       y1="121.24"
       x2="19.51"
       y2="65.53"
       xlink:href="#Degradado_sin_nombre_19" />
    <linearGradient
       id="Degradado_sin_nombre_20-2"
       x1="68.64"
       y1="134.54"
       x2="17.44"
       y2="77.73"
       xlink:href="#Degradado_sin_nombre_19" />
    <linearGradient
       id="Degradado_sin_nombre_19-5"
       x1="148.46"
       y1="94.74"
       x2="113.41"
       y2="134.93"
       xlink:href="#Degradado_sin_nombre_19" />
    <linearGradient
       id="Degradado_sin_nombre_19-6"
       x1="161.68"
       y1="90.79"
       x2="120.87"
       y2="137.59"
       xlink:href="#Degradado_sin_nombre_19" />
    <linearGradient
       id="Degradado_sin_nombre_19-7"
       x1="92.46"
       y1="82.61"
       x2="98.59"
       y2="89.79"
       xlink:href="#Degradado_sin_nombre_19" />
  </defs>
  <rect
     class="cls-1"
     width="186.83"
     height="186.83"
     rx="53.43"
     id="rect24" />
  <path
     class="cls-2"
     d="M138.19,60.91a54.36,54.36,0,0,0-8.52-10.09q-14.28,14.34-28.59,28.67a5.22,5.22,0,0,1,.76.94q7.29,11.52,14.48,23.12a17.29,17.29,0,0,1,.81,1.6,2.06,2.06,0,0,1-3,2.06c-1.24-.68-2.41-1.48-3.61-2.24-6.76-4.24-13.53-8.46-20.25-12.76a5.24,5.24,0,0,1-1-.82l-35,35.13a19.5,19.5,0,0,0,9.63,0,50.18,50.18,0,0,0,65.27-.43,14,14,0,0,1-3.15-2.6,14.9,14.9,0,0,1-3.08-5.11,15.05,15.05,0,0,1,7.4-18.49A14.44,14.44,0,0,1,138,98.29a18.24,18.24,0,0,1,3,.5,14.8,14.8,0,0,1,3.78,1.61A49.94,49.94,0,0,0,138.19,60.91Z"
     id="path26" />
  <path
     class="cls-3"
     d="M125.6,35.81l15.47,7.07a8.62,8.62,0,0,1-15.47-7.05Z"
     id="path28" />
  <path
     class="cls-4"
     d="M142.11,40.8l-15.62-7.13a7.86,7.86,0,0,1,1.4-1.76,8.45,8.45,0,0,1,4-2.25,8.66,8.66,0,0,1,4.52.09c.11-.18.16-.32,0-.48a1.5,1.5,0,0,1,1.48-2.55,1.48,1.48,0,0,1,1,1.61,1.44,1.44,0,0,1-1.36,1.3c-.25,0-.33.12-.35.35a8.55,8.55,0,0,1,5.34,6.67A8.21,8.21,0,0,1,142.11,40.8Z"
     id="path30" />
  <path
     class="cls-5"
     d="M129.67,50.82q-14.28,14.34-28.59,28.67a4.9,4.9,0,0,0-1.12-.94q-11.49-7.3-23-14.56a3.68,3.68,0,0,0-1.63-.79,2.74,2.74,0,0,0-2,.67A3.23,3.23,0,0,0,73,65.93c0,.4.39.78.63,1.16,4.74,7.59,9.47,15.2,14.26,22.77a7.16,7.16,0,0,0,1.31,1.53l-35,35.13a20.21,20.21,0,0,1-2.09-.66,19.83,19.83,0,0,1-6-33.51,50.22,50.22,0,0,1,13-38.08c-.73-1.06-1.26-1.64-2.69-1a8.77,8.77,0,1,1,4.79-4.91,1.84,1.84,0,0,0,.89,2.73C76.31,39,92.51,35,110.59,40.23A47.36,47.36,0,0,1,129.67,50.82Z"
     id="path32" />
  <path
     class="cls-6"
     d="M76.3,107.79H33.44a21.56,21.56,0,0,1,42.86,0Z"
     id="path34" />
  <path
     class="cls-7"
     d="M76.36,111.82a23.09,23.09,0,0,1-.82,4.58,20.66,20.66,0,0,1-6,9.64,21.56,21.56,0,0,1-21.4,4.7c-.3.48-.43.77.08,1.23a3.76,3.76,0,1,1-2.77-1c.61,0,.84-.23.91-.82-7.25-3.44-11.67-9.08-12.84-17.09-.06-.41-.1-.81-.13-1.22Z"
     id="path36" />
  <path
     class="cls-8"
     d="M130.25,99.91a13.84,13.84,0,0,1,4.2-1.43v29.7a14.79,14.79,0,0,1-5.37-2.07,14,14,0,0,1-3.15-2.6,14.9,14.9,0,0,1-3.08-5.11A15.05,15.05,0,0,1,130.25,99.91Z"
     id="path38" />
  <path
     class="cls-9"
     d="M155.61,108.39a2.56,2.56,0,0,1-3.3-.25.56.56,0,0,0-.87-.07A14.91,14.91,0,0,1,149,122.8a14.46,14.46,0,0,1-8.89,5.34l-.32.05V98.47c.49.08,1,.19,1.45.31A14.56,14.56,0,0,1,145,100.4c.26.14.53.31.77.47a15.13,15.13,0,0,1,5.16,6c.36-.07.59-.15.58-.63a2.57,2.57,0,0,1,2.09-2.57,2.63,2.63,0,0,1,2,4.72Z"
     id="path40" />
  <text
     class="cls-10"
     transform="translate(45.62 173.61)"
     id="text46">CoM<tspan
   class="cls-11"
   x="40.65"
   y="0"
   id="tspan42">P</tspan>
<tspan
   x="52.42"
   y="0"
   id="tspan44">aseD</tspan>
</text>
  <rect
     class="cls-12"
     x="90.81"
     y="81.48"
     width="9.43"
     height="9.43"
     rx="4.72"
     id="rect48" />
</svg>
